<svg id="Layer_2" data-name="Layer 2" xmlns="http://www.w3.org/2000/svg" viewBox="0 0 1536.24 1600.34">
  <defs>
    <style>
      .cls-1 {
        opacity: 0;
      }

      .cls-2 {
        fill: #5572b5;
      }

      .cls-3 {
        opacity: 0;
      }

      .cls-4 {
        opacity: 0;
      }

      .cls-5 {
        opacity: 0;
      }

      .cls-6 {
        opacity: 0;
      }

      .cls-7 {
        opacity: 0;
      }

      .cls-8 {
        opacity: 0.01;
      }

      .cls-9 {
        opacity: 0.01;
      }

      .cls-10 {
        opacity: 0.01;
      }

      .cls-11 {
        opacity: 0.01;
      }

      .cls-12 {
        opacity: 0.02;
      }

      .cls-13 {
        opacity: 0.02;
      }

      .cls-14 {
        opacity: 0.02;
      }

      .cls-15 {
        opacity: 0.03;
      }

      .cls-16 {
        opacity: 0.03;
      }

      .cls-17 {
        opacity: 0.03;
      }

      .cls-18 {
        opacity: 0.04;
      }

      .cls-19 {
        opacity: 0.05;
      }

      .cls-20 {
        opacity: 0.05;
      }

      .cls-21 {
        opacity: 0.06;
      }

      .cls-22 {
        opacity: 0.07;
      }

      .cls-23 {
        opacity: 0.09;
      }

      .cls-24 {
        opacity: 0.14;
      }

      .cls-25 {
        fill: #99b7e1;
      }

      .cls-26 {
        fill: #fff;
      }
    </style>
  </defs>
  <g>
    <g class="cls-1">
      <path class="cls-2" d="M769.53,1600.34c-277.93,0-531.77-140.53-679-375.92a180.81,180.81,0,0,1,57.41-249.18c84.64-52.94,196.22-27.26,249.18,57.4,80.71,129,219.94,206.07,372.43,206.07q7.49,0,15-.25C884,1235,968,1313.22,971.36,1413a180.81,180.81,0,0,1-174.57,186.85Q783.17,1600.35,769.53,1600.34Zm546.22-328.45a180,180,0,0,1-84.65-21.16c-88.2-46.83-121.74-156.3-74.9-244.49a442.7,442.7,0,0,0,51.49-206.85,437.23,437.23,0,0,0-65.94-230.58c-.57-.89-1.14-1.79-1.7-2.69a180.81,180.81,0,0,1,58.28-249c84.48-52.45,195.42-26.78,248.33,57.24.43.67.86,1.34,1.27,2a800.13,800.13,0,0,1,27.66,799.44A180.77,180.77,0,0,1,1315.75,1271.89Zm131.5-896.58a.53.53,0,0,0,.06.1l-153.63,95.36,153.68-95.27ZM1445,371.8c.23.35.47.69.69,1ZM221.49,690.48a180.06,180.06,0,0,1-84.44-21C48.78,622.72,15.12,513.3,61.83,425A801,801,0,0,1,740.08.13C840.37-3.59,923.64,74.64,927.17,174.44S852.65,358,752.86,361.52a439.48,439.48,0,0,0-371.42,232.7A180.77,180.77,0,0,1,221.49,690.48Z" transform="translate(-33.08 0)"/>
    </g>
    <g class="cls-3">
      <path class="cls-2" d="M769.53,1593.39c-275.52,0-527.15-139.31-673.12-372.65A173.86,173.86,0,1,1,391.2,1036.33c82,131.08,223.43,209.34,378.33,209.34,5.08,0,10.14-.09,15.21-.27,95.89-3,176.41,71.9,179.67,167.86a173.87,173.87,0,0,1-167.85,179.67Q783,1593.38,769.53,1593.39Zm546.22-328.46a173.91,173.91,0,0,1-153.4-255.43,449.68,449.68,0,0,0,52.29-210.11,444.23,444.23,0,0,0-67-234.27l-1.68-2.66a173.86,173.86,0,0,1,56-239.41c81.23-50.44,187.94-25.74,238.81,55.09.41.64.82,1.28,1.22,1.93a793.1,793.1,0,0,1,27.42,792.5A173.84,173.84,0,0,1,1315.75,1264.93ZM1441.4,379.08l-147.72,91.69,147.77-91.6a.41.41,0,0,1,0-.09Zm-2.22-3.43.15.22ZM221.49,683.52A173.92,173.92,0,0,1,68,428.29,794.12,794.12,0,0,1,740.33,7.07c96.32-3.64,176.5,71.65,179.89,167.62A173.86,173.86,0,0,1,752.61,354.58,446.37,446.37,0,0,0,375.3,591,173.83,173.83,0,0,1,221.49,683.52Z" transform="translate(-33.08 0)"/>
    </g>
    <g class="cls-4">
      <path class="cls-2" d="M769.53,1586.43c-273.1,0-522.53-138.08-667.22-369.38a166.9,166.9,0,1,1,283-177c83.28,133.12,226.91,212.6,384.22,212.6q7.72,0,15.45-.26c91.92-3.22,169.34,69,172.48,161.13A166.9,166.9,0,0,1,796.32,1586Q782.93,1586.44,769.53,1586.43ZM1315.76,1258a167,167,0,0,1-147.27-245.22,456.66,456.66,0,0,0,53.11-213.37,451.08,451.08,0,0,0-68.08-238l-1.65-2.62A166.91,166.91,0,0,1,1435,381.88l1.19,1.87a786.22,786.22,0,0,1,27.17,785.56A166.9,166.9,0,0,1,1315.76,1258Zm119.71-875.26,0,0-141.82,88,141.87-87.93Zm-1.66-2.59h0Zm-.22-.33a2.14,2.14,0,0,0,.13.19A2.14,2.14,0,0,1,1433.59,379.8Zm-.19-.28.16.24ZM221.5,676.57a167,167,0,0,1-147.37-245A787.14,787.14,0,0,1,740.57,14C833,11.09,910,82.82,913.27,174.93a166.91,166.91,0,0,1-160.9,172.7A453.32,453.32,0,0,0,369.15,587.71,166.87,166.87,0,0,1,221.5,676.57Z" transform="translate(-33.08 0)"/>
    </g>
    <g class="cls-5">
      <path class="cls-2" d="M769.53,1579.48c-270.7,0-517.92-136.87-661.32-366.12a159.95,159.95,0,0,1,271.2-169.66c84.56,135.18,230.4,215.88,390.12,215.88,5.23,0,10.45-.1,15.68-.27A160,160,0,0,1,796.09,1579Q782.82,1579.48,769.53,1579.48ZM1315.77,1251a160,160,0,0,1-141.15-235,463.51,463.51,0,0,0,53.93-216.63,458.08,458.08,0,0,0-69.14-241.67c-.55-.86-1.09-1.73-1.63-2.6a160,160,0,0,1,271.3-169.51c.38.61.77,1.21,1.16,1.83a779.3,779.3,0,0,1,26.93,778.61A159.92,159.92,0,0,1,1315.77,1251Zm113.81-864.61-135.9,84.36,136-84.26-.06-.1Zm-1.77-2.74.08.11Zm-.2-.3a1.64,1.64,0,0,1,.14.22A1.64,1.64,0,0,0,1427.61,383.37ZM221.51,669.61A160,160,0,0,1,80.27,434.8,780.2,780.2,0,0,1,740.83,21c88.06-3,162.38,65.93,165.5,154.21a160,160,0,0,1-154.22,165.5A460.29,460.29,0,0,0,363,584.46,159.94,159.94,0,0,1,221.51,669.61Z" transform="translate(-33.08 0)"/>
    </g>
    <g class="cls-6">
      <path class="cls-2" d="M769.53,1572.52c-268.28,0-513.31-135.64-655.44-362.85a153,153,0,0,1,259.43-162.28c85.83,137.22,233.87,219.14,396,219.14q8,0,15.93-.27c84.25-2.86,155.24,63.26,158.1,147.71a153,153,0,0,1-147.71,158.1Q782.7,1572.54,769.53,1572.52Zm546.24-328.46a153,153,0,0,1-135-224.78,470.62,470.62,0,0,0,54.73-219.89A465,465,0,0,0,1165.3,554c-.55-.85-1.08-1.71-1.61-2.56a153,153,0,0,1,259.52-162.1c.38.58.75,1.17,1.12,1.76a772.32,772.32,0,0,1,26.7,771.68A153,153,0,0,1,1315.77,1244.06Zm107.9-854-130,80.69,130.06-80.58a.41.41,0,0,0-.07-.11Zm-1.85-2.85c.16.22.31.45.45.67C1422.13,387.68,1422,387.45,1421.82,387.23ZM221.51,662.66A153.06,153.06,0,0,1,86.42,438.06,773.22,773.22,0,0,1,741.07,27.92c1.83-.06,3.67-.09,5.5-.09a153,153,0,0,1,5.3,305.9,467.25,467.25,0,0,0-395,247.48A153,153,0,0,1,221.51,662.66Z" transform="translate(-33.08 0)"/>
    </g>
    <g class="cls-7">
      <path class="cls-2" d="M769.53,1565.57c-265.87,0-508.69-134.42-649.54-359.58a146,146,0,1,1,247.63-154.91c87.11,139.26,237.36,222.41,401.91,222.41q8.09,0,16.16-.28c80.08-2.85,148.17,60.38,150.92,141a146,146,0,0,1-141,150.92Q782.58,1565.57,769.53,1565.57Zm546.25-328.46a146.1,146.1,0,0,1-128.87-214.57,477.5,477.5,0,0,0,55.55-223.15,471.92,471.92,0,0,0-71.28-249.09c-.53-.83-1.06-1.67-1.58-2.51a146,146,0,0,1,247.74-154.72c.37.57.74,1.15,1.09,1.73a765.39,765.39,0,0,1,26.46,764.73A146.05,146.05,0,0,1,1315.78,1237.11Zm102-843.36-124.08,77,124.15-76.91-.07-.11Zm-1.72-2.66.12.18ZM221.52,655.7a146.07,146.07,0,0,1-129-214.39A766.26,766.26,0,0,1,741.31,34.87c80.4-2.85,148.27,60.19,151.11,140.8a146,146,0,0,1-140.8,151.11A474.18,474.18,0,0,0,350.71,578,146,146,0,0,1,221.52,655.7Z" transform="translate(-33.08 0)"/>
    </g>
    <g class="cls-8">
      <path class="cls-2" d="M769.53,1558.62c-263.46,0-504.08-133.21-643.64-356.32a139.09,139.09,0,1,1,235.83-147.53c88.4,141.31,240.85,225.67,407.81,225.67q8.19,0,16.39-.28a139.09,139.09,0,0,1,9.46,278Q782.45,1558.61,769.53,1558.62Zm546.25-328.47a139.13,139.13,0,0,1-122.73-204.34,484.42,484.42,0,0,0,56.37-226.42,479,479,0,0,0-72.34-252.78c-.53-.83-1.06-1.66-1.57-2.49a139.09,139.09,0,0,1,236-147.33c.37.56.72,1.12,1.07,1.69a758.37,758.37,0,0,1,26.21,757.78A139.05,139.05,0,0,1,1315.78,1230.15Zm96.07-832.74-118.17,73.36,118.24-73.24ZM221.52,648.75A139.14,139.14,0,0,1,98.71,444.56,759.36,759.36,0,0,1,741.56,41.82c76.59-2.47,141.19,57.33,143.91,134.1A139.1,139.1,0,0,1,751.38,319.83,481.13,481.13,0,0,0,344.57,574.7,139.08,139.08,0,0,1,221.52,648.75Z" transform="translate(-33.08 0)"/>
    </g>
    <g class="cls-9">
      <path class="cls-2" d="M769.53,1551.66c-261,0-499.45-132-637.74-353.06a132.13,132.13,0,1,1,224-140.14c89.68,143.35,244.34,228.94,413.71,228.94q8.31,0,16.63-.29c72.73-2.86,134.07,54.62,136.55,127.56a132.14,132.14,0,0,1-127.57,136.55Q782.35,1551.66,769.53,1551.66Zm546.26-328.46a132.19,132.19,0,0,1-116.6-194.13,491.41,491.41,0,0,0,57.17-229.68,485.85,485.85,0,0,0-73.42-256.52c-.51-.8-1-1.61-1.52-2.42a132.14,132.14,0,0,1,224.17-140c.34.55.7,1.1,1.05,1.66a751.43,751.43,0,0,1,26,750.84A132.11,132.11,0,0,1,1315.79,1223.2Zm90.15-822.11-112.26,69.68L1406,401.2ZM221.53,641.79a132.18,132.18,0,0,1-116.68-194,752.37,752.37,0,0,1,636.95-399,132.13,132.13,0,1,1,9.34,264.1A488.09,488.09,0,0,0,338.42,571.45,132.12,132.12,0,0,1,221.53,641.79Z" transform="translate(-33.08 0)"/>
    </g>
    <g class="cls-10">
      <path class="cls-2" d="M769.53,1544.71c-258.64,0-494.84-130.76-631.85-349.79a125.18,125.18,0,0,1,212.26-132.77c90.95,145.39,247.81,232.2,419.59,232.2q8.44,0,16.86-.29a125.18,125.18,0,1,1,8.52,250.21Q782.21,1544.71,769.53,1544.71Zm546.26-328.47a125.21,125.21,0,0,1-110.45-183.91,498.52,498.52,0,0,0,58-232.94,492.79,492.79,0,0,0-74.5-260.22c-.5-.8-1-1.59-1.49-2.39a125.18,125.18,0,0,1,212.41-132.51l1,1.57a744.53,744.53,0,0,1,25.72,743.9A125.15,125.15,0,0,1,1315.79,1216.24ZM1400,404.75l-106.35,66,106.44-65.89ZM221.53,634.83A125.2,125.2,0,0,1,111,451.07a745.41,745.41,0,0,1,631-395.35c68.72-2.37,127.08,51.59,129.52,120.68A125.19,125.19,0,0,1,750.89,305.93,495.08,495.08,0,0,0,332.27,568.19,125.16,125.16,0,0,1,221.53,634.83Z" transform="translate(-33.08 0)"/>
    </g>
    <g class="cls-11">
      <path class="cls-2" d="M769.53,1537.75c-256.22,0-490.22-129.54-625.95-346.52A118.22,118.22,0,1,1,344,1065.84c92.23,147.44,251.29,235.46,425.49,235.46,5.71,0,11.4-.1,17.11-.29a118.22,118.22,0,1,1,8,236.31Q782.11,1537.76,769.53,1537.75Zm546.27-328.47a118.26,118.26,0,0,1-104.32-173.69,505.38,505.38,0,0,0,58.8-236.2,499.76,499.76,0,0,0-75.56-263.91c-.51-.79-1-1.57-1.48-2.37A118.22,118.22,0,0,1,1393.86,408c.33.51.65,1,1,1.53a737.59,737.59,0,0,1,25.49,737A118.21,118.21,0,0,1,1315.8,1209.28Zm78.33-800.86-100.45,62.35,100.53-62.22ZM221.54,627.88A118.27,118.27,0,0,1,117.15,454.32,738.44,738.44,0,0,1,742.29,62.68,118.22,118.22,0,1,1,750.65,299a502,502,0,0,0-424.52,266A118.22,118.22,0,0,1,221.54,627.88Z" transform="translate(-33.08 0)"/>
    </g>
    <g class="cls-12">
      <path class="cls-2" d="M769.53,1530.8c-253.81,0-485.61-128.32-620.06-343.26a111.27,111.27,0,0,1,188.67-118c93.51,149.49,254.78,238.74,431.39,238.74q8.67,0,17.34-.3c1.28,0,2.57-.07,3.85-.07a111.27,111.27,0,0,1,3.71,222.48Q782,1530.79,769.53,1530.8Zm546.28-328.47a111.31,111.31,0,0,1-98.19-163.48,512.37,512.37,0,0,0,59.61-239.46,506.73,506.73,0,0,0-76.63-267.62c-.49-.77-1-1.55-1.46-2.33A111.27,111.27,0,0,1,1388,411.73l.93,1.47a730.52,730.52,0,0,1,25.24,730A111.25,111.25,0,0,1,1315.81,1202.33Zm72.41-790.24-94.54,58.68,94.63-58.54ZM221.55,620.92a111.31,111.31,0,0,1-98.26-163.35A731.55,731.55,0,0,1,742.54,69.62,111.27,111.27,0,0,1,750.4,292,508.94,508.94,0,0,0,320,561.69,111.28,111.28,0,0,1,221.55,620.92Z" transform="translate(-33.08 0)"/>
    </g>
    <g class="cls-13">
      <path class="cls-2" d="M769.53,1523.84c-251.39,0-481-127.1-614.16-340a104.31,104.31,0,1,1,176.87-110.64c94.79,151.54,258.27,242,437.29,242q8.79,0,17.58-.3c57.46-2.06,105.84,43.13,107.8,100.71a104.33,104.33,0,0,1-100.71,107.8Q781.86,1523.84,769.53,1523.84Zm546.28-328.47a104.35,104.35,0,0,1-92-153.26,519.49,519.49,0,0,0,60.42-242.72,513.73,513.73,0,0,0-77.71-271.34c-.48-.76-1-1.51-1.43-2.27a104.31,104.31,0,0,1,177.07-110.32c.31.47.62.94.91,1.42A723.62,723.62,0,0,1,1408,1140,104.31,104.31,0,0,1,1315.81,1195.37Zm66.5-779.61-88.63,55,88.72-54.87ZM221.55,614a104.34,104.34,0,0,1-92.1-153.14A724.53,724.53,0,0,1,742.78,76.58a104.32,104.32,0,1,1,7.38,208.5A515.92,515.92,0,0,0,313.83,558.43,104.29,104.29,0,0,1,221.55,614Z" transform="translate(-33.08 0)"/>
    </g>
    <g class="cls-14">
      <path class="cls-2" d="M769.53,1516.89c-249,0-476.38-125.88-608.27-336.72A97.36,97.36,0,1,1,326.35,1076.9c96.07,153.58,261.74,245.26,443.18,245.26q8.91,0,17.81-.3A97.36,97.36,0,1,1,794,1516.47Q781.75,1516.89,769.53,1516.89Zm546.29-328.48a97.39,97.39,0,0,1-85.91-143,526.48,526.48,0,0,0,61.23-246,520.55,520.55,0,0,0-78.78-275l-1.4-2.23a97.36,97.36,0,0,1,165.3-102.92c.29.46.59.91.87,1.37a716.71,716.71,0,0,1,24.76,716.14A97.34,97.34,0,0,1,1315.82,1188.41Zm60.58-769-82.72,51.35,82.82-51.19ZM221.56,607a97.39,97.39,0,0,1-86-142.93A717.6,717.6,0,0,1,743,83.52a97.37,97.37,0,0,1,6.87,194.61,522.89,522.89,0,0,0-442.21,277A97.36,97.36,0,0,1,221.56,607Z" transform="translate(-33.08 0)"/>
    </g>
    <g class="cls-15">
      <path class="cls-2" d="M769.53,1509.93c-246.57,0-471.75-124.65-602.37-333.45a90.41,90.41,0,0,1,153.3-95.89c97.34,155.62,265.23,248.53,449.07,248.53q9,0,18-.31c1,0,2.1,0,3.13,0a90.41,90.41,0,0,1,3,180.76Q781.63,1509.94,769.53,1509.93Zm546.29-328.47a90.44,90.44,0,0,1-79.77-132.82,533.37,533.37,0,0,0,62-249.25,527.6,527.6,0,0,0-79.85-278.77c-.46-.72-.92-1.45-1.37-2.18a90.41,90.41,0,0,1,153.52-95.52l.84,1.32a709.69,709.69,0,0,1,24.51,709.19A90.38,90.38,0,0,1,1315.82,1181.46Zm54.67-758.37-76.81,47.68,76.92-47.51Zm-1148.93,177a90.45,90.45,0,0,1-79.83-132.73A710.63,710.63,0,0,1,743.28,90.48c1.08,0,2.17-.06,3.25-.06a90.41,90.41,0,0,1,3.13,180.76A529.79,529.79,0,0,0,301.55,551.93,90.44,90.44,0,0,1,221.56,600.06Z" transform="translate(-33.08 0)"/>
    </g>
    <g class="cls-16">
      <path class="cls-2" d="M769.53,1503c-244.16,0-467.14-123.44-596.47-330.19a83.45,83.45,0,1,1,141.5-88.51c98.63,157.67,268.71,251.8,455,251.8q9.13,0,18.29-.32c45.77-1.46,84.67,34.51,86.23,80.57a83.45,83.45,0,0,1-80.57,86.24Q781.53,1503,769.53,1503Zm546.3-328.48a83.48,83.48,0,0,1-73.64-122.6,540.4,540.4,0,0,0,62.86-252.51,534.41,534.41,0,0,0-80.94-282.49c-.45-.71-.89-1.42-1.33-2.13a83.45,83.45,0,0,1,141.74-88.12c.28.42.54.85.81,1.27a702.78,702.78,0,0,1,24.27,702.25A83.4,83.4,0,0,1,1315.83,1174.5Zm48.75-747.74-70.9,44,71-43.82ZM221.57,593.1a83.47,83.47,0,0,1-73.68-122.51A703.69,703.69,0,0,1,743.53,97.42c45.8-1.49,84.72,34.4,86.34,80.46a83.45,83.45,0,0,1-80.46,86.35,536.8,536.8,0,0,0-454,284.44A83.43,83.43,0,0,1,221.57,593.1Z" transform="translate(-33.08 0)"/>
    </g>
    <g class="cls-17">
      <path class="cls-2" d="M769.53,1496C527.78,1496,307,1373.81,179,1169.1A76.49,76.49,0,1,1,308.66,1088C408.57,1247.68,580.86,1343,769.53,1343q9.27,0,18.52-.32c41.78-1.63,77.62,31.62,79.06,73.86a76.51,76.51,0,0,1-73.86,79Q781.39,1496,769.53,1496Zm546.31-328.48a76.52,76.52,0,0,1-67.5-112.39A547.52,547.52,0,0,0,1312,799.39a541.46,541.46,0,0,0-82-286.2c-.45-.69-.89-1.38-1.31-2.08a76.5,76.5,0,0,1,130-80.73c.27.41.52.81.78,1.23a695.8,695.8,0,0,1,24,695.3A76.48,76.48,0,0,1,1315.84,1167.55Zm42.83-737.12-65,40.34,65.13-40.14ZM221.58,586.15A76.54,76.54,0,0,1,154,473.84,696.72,696.72,0,0,1,743.77,104.38c42.11-1.69,77.65,31.52,79.15,73.75a76.51,76.51,0,0,1-73.75,79.15A543.73,543.73,0,0,0,289.25,545.42,76.49,76.49,0,0,1,221.58,586.15Z" transform="translate(-33.08 0)"/>
    </g>
    <g class="cls-18">
      <path class="cls-2" d="M769.53,1489.07c-239.33,0-457.91-121-584.69-323.65a69.55,69.55,0,0,1,117.93-73.77C404,1253.41,578.44,1350,769.53,1350c6.26,0,12.5-.12,18.76-.33a69.55,69.55,0,1,1,4.72,139Q781.28,1489.08,769.53,1489.07Zm546.31-328.48a69.55,69.55,0,0,1-61.36-102.17,554.2,554.2,0,0,0,64.47-259,548.35,548.35,0,0,0-83.08-289.92c-.43-.67-.86-1.35-1.28-2a69.55,69.55,0,0,1,118.18-73.35l-59.09,36.68,59.23-36.45c.39.58.25.37.62,1a688.84,688.84,0,0,1,23.79,688.37A69.53,69.53,0,0,1,1315.84,1160.59ZM221.58,579.19A69.58,69.58,0,0,1,160.17,477.1,689.73,689.73,0,0,1,744,111.33a69.54,69.54,0,1,1,4.91,139A550.68,550.68,0,0,0,283.11,542.16,69.54,69.54,0,0,1,221.58,579.19Z" transform="translate(-33.08 0)"/>
    </g>
    <g class="cls-19">
      <path class="cls-2" d="M769.53,1482.12c-236.92,0-453.29-119.78-578.79-320.39a62.59,62.59,0,0,1,106.13-66.39c102.46,163.8,279.16,261.6,472.66,261.6q9.5,0,19-.33c34.05-1.34,63.52,25.87,64.68,60.43a62.59,62.59,0,0,1-60.42,64.68Q781.16,1482.13,769.53,1482.12Zm546.32-328.49a62.61,62.61,0,0,1-55.23-92,561.21,561.21,0,0,0,65.29-262.29,555.36,555.36,0,0,0-84.16-293.65c-.43-.66-.84-1.31-1.25-2a62.59,62.59,0,0,1,106.36-66l-53.18,33L1347,438c.35.52.27.42.61,1a681.89,681.89,0,0,1,23.54,681.42A62.55,62.55,0,0,1,1315.85,1153.63ZM221.59,572.23a62.61,62.61,0,0,1-55.27-91.88A682.8,682.8,0,0,1,744.26,118.28c34.57-1.53,63.55,25.79,64.76,60.34a62.58,62.58,0,0,1-60.34,64.75A557.69,557.69,0,0,0,277,538.91,62.57,62.57,0,0,1,221.59,572.23Z" transform="translate(-33.08 0)"/>
    </g>
    <g class="cls-20">
      <path class="cls-2" d="M769.53,1475.17c-234.5,0-448.68-118.56-572.89-317.13A55.63,55.63,0,0,1,291,1099c103.75,165.85,282.65,264.86,478.56,264.86q9.62,0,19.23-.33a55.64,55.64,0,0,1,3.79,111.21Q781,1475.16,769.53,1475.17Zm546.32-328.49a55.65,55.65,0,0,1-49.08-81.74,568.32,568.32,0,0,0,66.1-265.55A562.24,562.24,0,0,0,1247.61,502l-1.2-1.9A55.64,55.64,0,0,1,1341,441.43l-47.27,29.34,47.44-29.06c.32.47.31.46.61.94a675,675,0,0,1,23.3,674.48A55.62,55.62,0,0,1,1315.85,1146.68ZM221.59,565.28a55.66,55.66,0,0,1-49.12-81.68,675.84,675.84,0,0,1,572-358.37c30.55-.88,56.49,22.92,57.57,53.63a55.64,55.64,0,0,1-53.63,57.57A564.61,564.61,0,0,0,270.81,535.66,55.66,55.66,0,0,1,221.59,565.28Z" transform="translate(-33.08 0)"/>
    </g>
    <g class="cls-21">
      <path class="cls-2" d="M769.53,1468.21c-232.1,0-444-117.33-567-313.86a48.68,48.68,0,1,1,82.54-51.64c105,167.9,286.13,268.14,484.45,268.14q9.74,0,19.47-.34c26.58-1,49.39,20.13,50.3,47a48.68,48.68,0,0,1-47,50.31Q780.92,1468.2,769.53,1468.21Zm546.33-328.49a48.69,48.69,0,0,1-43-71.51,575.27,575.27,0,0,0,66.92-268.82,569.26,569.26,0,0,0-86.59-301.53h0l-.91-1.42A48.68,48.68,0,0,1,1335,445.09l-41.36,25.68,41.56-25.35c.28.41.33.5.58.91a667.93,667.93,0,0,1,23.08,667.53A48.67,48.67,0,0,1,1315.86,1139.72ZM221.6,558.32a48.68,48.68,0,0,1-43-71.46A668.86,668.86,0,0,1,744.75,132.18a48.68,48.68,0,1,1,3.44,97.29A571.6,571.6,0,0,0,264.66,532.4,48.65,48.65,0,0,1,221.6,558.32Z" transform="translate(-33.08 0)"/>
    </g>
    <g class="cls-22">
      <path class="cls-2" d="M769.53,1461.25c-229.69,0-439.44-116.1-561.1-310.59a41.73,41.73,0,0,1,70.76-44.25c106.3,169.93,289.61,271.39,490.34,271.39q9.86,0,19.7-.34a41.73,41.73,0,1,1,2.84,83.41Q780.8,1461.25,769.53,1461.25Zm546.33-328.48a41.74,41.74,0,0,1-36.82-61.3,582.13,582.13,0,0,0,67.74-272.08,576.23,576.23,0,0,0-87.65-305.21h0l-.9-1.41a41.72,41.72,0,1,1,70.9-44l-35.45,22,35.69-21.63c66.17,106.05,100.86,226.86,100.86,350.25a665.92,665.92,0,0,1-77.48,311.21A41.72,41.72,0,0,1,1315.86,1132.77ZM221.6,551.37a41.75,41.75,0,0,1-36.84-61.26A662,662,0,0,1,745,139.13a41.73,41.73,0,0,1,3,83.4A578.53,578.53,0,0,0,258.52,529.15,41.75,41.75,0,0,1,221.6,551.37Z" transform="translate(-33.08 0)"/>
    </g>
    <g class="cls-23">
      <path class="cls-2" d="M769.53,1454.3c-227.27,0-434.82-114.89-555.21-307.33a34.78,34.78,0,0,1,59-36.88c107.58,172,293.09,274.66,496.24,274.66q10,0,19.94-.34c18.84-.51,35.29,14.39,35.93,33.57a34.77,34.77,0,0,1-33.57,35.94Q780.69,1454.3,769.53,1454.3Zm546.34-328.49a34.79,34.79,0,0,1-30.69-51.08,589.12,589.12,0,0,0,68.55-275.34A583.05,583.05,0,0,0,1265,490.5l-.88-1.4a34.77,34.77,0,1,1,59.08-36.67l.29.46c65.44,104.87,99.76,224.42,99.76,346.5a659,659,0,0,1-76.66,307.95A34.76,34.76,0,0,1,1315.87,1125.81ZM221.61,544.41a34.78,34.78,0,0,1-30.71-51A655,655,0,0,1,745.24,146.08a34.77,34.77,0,1,1,2.46,69.49A585.53,585.53,0,0,0,252.37,525.9,34.76,34.76,0,0,1,221.61,544.41Z" transform="translate(-33.08 0)"/>
    </g>
    <g class="cls-24">
      <path class="cls-2" d="M769.53,1447.34c-224.86,0-430.21-113.66-549.31-304.06a27.82,27.82,0,0,1,47.17-29.5c108.86,174,296.58,277.93,502.14,277.93q10.1,0,20.17-.34a27.82,27.82,0,0,1,1.9,55.6Q780.56,1447.35,769.53,1447.34Zm546.35-328.49a27.82,27.82,0,0,1-24.55-40.86,596.2,596.2,0,0,0,69.35-278.6,590,590,0,0,0-89.76-312.57l-.87-1.38a27.81,27.81,0,1,1,47.26-29.34l.37.57c64.69,103.67,98.64,221.94,98.64,342.72a652,652,0,0,1-75.85,304.69A27.81,27.81,0,0,1,1315.88,1118.85ZM221.62,537.45a27.81,27.81,0,0,1-24.56-40.83A648.07,648.07,0,0,1,745.49,153c14.82-.49,28.24,11.46,28.78,26.81a27.82,27.82,0,0,1-26.82,28.79,592.44,592.44,0,0,0-501.23,314A27.8,27.8,0,0,1,221.62,537.45Z" transform="translate(-33.08 0)"/>
    </g>
    <path class="cls-2" d="M769.53,1440.39c-222.44,0-425.59-112.44-543.41-300.79a20.86,20.86,0,1,1,35.37-22.13c110.14,176.07,300.07,281.19,508,281.19q10.22,0,20.41-.35a20.87,20.87,0,0,1,1.42,41.71Q780.44,1440.38,769.53,1440.39Zm546.35-328.49a20.87,20.87,0,0,1-18.41-30.65,603.2,603.2,0,0,0,70.17-281.86,597,597,0,0,0-90.82-316.25l-.87-1.37a20.87,20.87,0,0,1,35.46-22l.47.76c63.9,102.4,97.49,219.39,97.49,338.87a645,645,0,0,1-75,301.43A20.86,20.86,0,0,1,1315.88,1111.9ZM221.62,530.5a20.87,20.87,0,0,1-18.42-30.63A641.13,641.13,0,0,1,745.74,160a20.86,20.86,0,1,1,1.46,41.69A599.41,599.41,0,0,0,240.08,519.39,20.86,20.86,0,0,1,221.62,530.5Z" transform="translate(-33.08 0)"/>
    <path class="cls-25" d="M769.53,1432.05c-219.55,0-420-111-536.34-296.88a12.52,12.52,0,1,1,21.23-13.27C366.09,1300.43,558.66,1407,769.53,1407q10.35,0,20.69-.35a12.52,12.52,0,0,1,.86,25Q780.31,1432,769.53,1432.05Zm546.36-328.5a12.38,12.38,0,0,1-5.86-1.46,12.51,12.51,0,0,1-5.18-16.93A611.61,611.61,0,0,0,1376,799.39a605.26,605.26,0,0,0-92.08-320.67l-.86-1.35a12.52,12.52,0,1,1,21.28-13.2l.62,1a631.8,631.8,0,0,1,22,631.76A12.5,12.5,0,0,1,1315.89,1103.55ZM221.63,522.15a12.52,12.52,0,0,1-11-18.38A632.79,632.79,0,0,1,746,168.32h.45a12.52,12.52,0,0,1,.43,25A607.72,607.72,0,0,0,232.7,515.49,12.5,12.5,0,0,1,221.63,522.15Z" transform="translate(-33.08 0)"/>
    <path class="cls-26" d="M769.53,1423.7c-216.66,0-414.51-109.52-529.26-293a4.17,4.17,0,1,1,7.07-4.42c113.22,181,308.43,289,522.19,289q10.49,0,21-.37h.14a4.18,4.18,0,0,1,.14,8.35Q780.16,1423.7,769.53,1423.7Zm546.37-328.49a4.18,4.18,0,0,1-3.69-6.13,619.89,619.89,0,0,0,72.11-289.69A613.63,613.63,0,0,0,1291,474.31l-.85-1.34a4.18,4.18,0,0,1,7.1-4.4l.77,1.21A623.47,623.47,0,0,1,1319.59,1093,4.2,4.2,0,0,1,1315.9,1095.21ZM221.64,513.8a4.16,4.16,0,0,1-3.69-6.12,624.46,624.46,0,0,1,528.38-331c1.92.09,4.23,1.73,4.31,4a4.18,4.18,0,0,1-4,4.32A616.08,616.08,0,0,0,225.33,511.58,4.16,4.16,0,0,1,221.64,513.8Z" transform="translate(-33.08 0)"/>
  </g>
  <g>
    <g class="cls-1">
      <path class="cls-2" d="M491.88,1462a179.86,179.86,0,0,1-90.15-24.22C174.85,1307,33.6,1063.13,33.08,801.47c-.21-99.86,80.59-181,180.45-181.17h.37c99.69,0,180.6,80.72,180.8,180.46.26,133.09,72.18,257.16,187.69,323.77,86.5,49.89,116.19,160.46,66.3,247A180.76,180.76,0,0,1,491.88,1462Zm555.16-.59a180.76,180.76,0,0,1-156.62-90.19c-50.07-86.4-20.61-197,65.79-247.1,115.35-66.85,187-191.05,187-324.15v-2.26A180.81,180.81,0,0,1,1324,616.9c99.86,0,180.81,81,180.81,180.82v.53c0,.82,0,.91,0,1.73,0,261.64-140.75,505.74-367.32,637A179.94,179.94,0,0,1,1047,1461.42ZM490.23,500.79a180.72,180.72,0,0,1-156.42-89.85c-50.25-86.3-21-197,65.26-247.24A735.7,735.7,0,0,1,768.92,64.09h0a736,736,0,0,1,365.92,97.33,180.82,180.82,0,0,1,66.81,246.83c-49.7,86.6-160.21,116.51-246.83,66.8A373.94,373.94,0,0,0,769,425.72h0a373.6,373.6,0,0,0-187.88,50.49A180,180,0,0,1,490.23,500.79Z" transform="translate(-33.08 0)"/>
    </g>
    <g class="cls-3">
      <path class="cls-2" d="M491.89,1455.05a173,173,0,0,1-86.69-23.28C180.46,1302.17,40.54,1060.65,40,801.46a173.86,173.86,0,0,1,173.52-174.2h.36A173.85,173.85,0,0,1,387.75,800.77c.27,135.57,73.52,261.93,191.16,329.78a173.88,173.88,0,0,1-87,324.5Zm555.14-.59a173.88,173.88,0,0,1-87.33-324.32c117.48-68.08,190.46-194.59,190.46-330.16v-2.26a173.87,173.87,0,0,1,347.73,0v.55c0,.79,0,.92,0,1.71,0,259.17-139.42,501-363.85,631A173.09,173.09,0,0,1,1047,1454.46ZM490.22,493.84a173.88,173.88,0,0,1-87.65-324.13A728.79,728.79,0,0,1,768.92,71.05h0a729,729,0,0,1,362.46,96.4A173.86,173.86,0,0,1,958.32,469,380.88,380.88,0,0,0,769,418.77h0A380.56,380.56,0,0,0,577.55,470.2,173.13,173.13,0,0,1,490.22,493.84Z" transform="translate(-33.08 0)"/>
    </g>
    <g class="cls-4">
      <path class="cls-2" d="M491.9,1448.09a166.07,166.07,0,0,1-83.22-22.34C186.09,1297.38,47.49,1058.16,47,801.45A166.91,166.91,0,0,1,213.55,634.21h.35A166.9,166.9,0,0,1,380.79,800.78c.28,138,74.86,266.72,194.65,335.8a166.92,166.92,0,0,1-83.54,311.51Zm555.12-.59a166.92,166.92,0,0,1-83.84-311.34C1082.81,1066.84,1157.12,938,1157.12,800v-2.26a166.91,166.91,0,1,1,333.81,0v.57c0,.76,0,.93,0,1.69,0,256.7-138.08,496.19-360.38,625A166.19,166.19,0,0,1,1047,1447.5ZM490.21,486.88a166.92,166.92,0,0,1-84.13-311.16A721.67,721.67,0,0,1,768.92,78h0a722.12,722.12,0,0,1,359,95.48A166.91,166.91,0,0,1,961.78,463,387.81,387.81,0,0,0,769,411.81h0A387.56,387.56,0,0,0,574,464.19,166.13,166.13,0,0,1,490.21,486.88Z" transform="translate(-33.08 0)"/>
    </g>
    <g class="cls-5">
      <path class="cls-2" d="M491.9,1441.14a159.18,159.18,0,0,1-79.75-21.42c-220.45-127.13-357.71-364-358.21-618.29A160,160,0,0,1,213.57,641.16h.33A159.94,159.94,0,0,1,373.83,800.8c.29,140.51,76.2,271.49,198.13,341.8a160,160,0,0,1-80.06,298.54Zm555.12-.59a160,160,0,0,1-80.35-298.37c121.76-70.56,197.41-201.69,197.41-342.2v-2.26a160,160,0,1,1,319.9,0V800c0,254.23-136.76,491.41-356.91,619A159.17,159.17,0,0,1,1047,1440.55ZM490.21,479.93a160,160,0,0,1-80.64-298.2A714.8,714.8,0,0,1,768.92,85h0a715.25,715.25,0,0,1,355.54,94.56A160,160,0,0,1,965.24,457,394.68,394.68,0,0,0,769,404.86h0a394.43,394.43,0,0,0-198.38,53.32A159.27,159.27,0,0,1,490.21,479.93Z" transform="translate(-33.08 0)"/>
    </g>
    <g class="cls-6">
      <path class="cls-2" d="M491.91,1434.18a152.25,152.25,0,0,1-76.29-20.48C197.31,1287.8,61.39,1053.19,60.89,801.42a153,153,0,0,1,152.69-153.3h.32a153,153,0,0,1,153,152.69c.28,143,77.53,276.26,201.6,347.82a153,153,0,0,1-76.58,285.55Zm555.1-.59a153,153,0,0,1-76.85-285.4C1094.06,1076.39,1171,943,1171,800v-2.26a153,153,0,1,1,306,0v.62c0,.7,0,.95,0,1.64,0,251.76-135.44,486.63-353.45,613A152.32,152.32,0,0,1,1047,1433.59ZM490.2,473a153,153,0,0,1-77.12-285.23A707.74,707.74,0,0,1,768.92,91.91h0A708.27,708.27,0,0,1,1121,185.54,153,153,0,0,1,968.7,450.93,401.68,401.68,0,0,0,769,397.9h0A401.56,401.56,0,0,0,567,452.17,152.34,152.34,0,0,1,490.2,473Z" transform="translate(-33.08 0)"/>
    </g>
    <g class="cls-7">
      <path class="cls-2" d="M491.92,1427.23a145.31,145.31,0,0,1-72.82-19.56C202.94,1283,68.34,1050.7,67.84,801.4A146,146,0,0,1,213.6,655.07h.3a146,146,0,0,1,146,145.75c.29,145.47,78.87,281,205.09,353.83a146.06,146.06,0,0,1-73.1,272.58Zm555.08-.59a146.06,146.06,0,0,1-73.36-272.43C1099.69,1081.17,1178,945.44,1178,800v-2.26a146,146,0,1,1,292.08,0v.65c0,.67,0,1,0,1.61,0,249.28-134.1,481.85-350,607A145.33,145.33,0,0,1,1047,1426.64ZM490.19,466a146.06,146.06,0,0,1-73.62-272.27A700.92,700.92,0,0,1,768.92,98.87h0a701.27,701.27,0,0,1,348.62,92.7A146,146,0,0,1,972.17,444.9,408.61,408.61,0,0,0,769,391h0a408.52,408.52,0,0,0-205.38,55.2A145.3,145.3,0,0,1,490.19,466Z" transform="translate(-33.08 0)"/>
    </g>
    <g class="cls-8">
      <path class="cls-2" d="M491.92,1420.27a138.37,138.37,0,0,1-69.35-18.62c-214-123.43-347.28-353.43-347.77-600.26A139.09,139.09,0,0,1,213.61,662h.29A139.08,139.08,0,0,1,353,800.84c.3,147.93,80.22,285.81,208.57,359.83a139.11,139.11,0,0,1-69.62,259.6Zm555.08-.59a139.1,139.1,0,0,1-69.87-259.45C1105.31,1086,1184.94,947.91,1184.94,800v-2.26a139.09,139.09,0,1,1,278.17,0v.68c0,.64,0,1,0,1.58,0,246.81-132.77,477.08-346.5,600.93A138.49,138.49,0,0,1,1047,1419.68ZM490.19,459.06a139.11,139.11,0,0,1-70.12-259.31,694,694,0,0,1,348.85-93.93h0a694.22,694.22,0,0,1,345.15,91.79A139.08,139.08,0,1,1,975.63,438.86,415.7,415.7,0,0,0,769,384h0A415.42,415.42,0,0,0,560,440.15,138.47,138.47,0,0,1,490.19,459.06Z" transform="translate(-33.08 0)"/>
    </g>
    <g class="cls-9">
      <path class="cls-2" d="M491.93,1413.32a131.49,131.49,0,0,1-65.89-17.7C214.16,1273.43,82.24,1045.73,81.75,801.38A132.14,132.14,0,0,1,213.62,669h.28A132.13,132.13,0,0,1,346,800.85c.3,150.41,81.55,290.59,212.05,365.85a132.15,132.15,0,0,1-66.14,246.62Zm555.06-.59a132.15,132.15,0,0,1-66.37-246.48c130.31-75.53,211.27-215.87,211.27-366.27v-2.26a132.14,132.14,0,0,1,264.27,0v.72c0,.6,0,.94,0,1.54,0,244.34-131.45,472.3-343.05,594.91A131.47,131.47,0,0,1,1047,1412.73ZM490.18,452.11a132.15,132.15,0,0,1-66.61-246.35,687,687,0,0,1,345.35-93h0a687.18,687.18,0,0,1,341.69,90.86A132.13,132.13,0,0,1,979.09,432.83,422.63,422.63,0,0,0,769,377h0a422.32,422.32,0,0,0-212.38,57.1A131.6,131.6,0,0,1,490.18,452.11Z" transform="translate(-33.08 0)"/>
    </g>
    <g class="cls-10">
      <path class="cls-2" d="M491.94,1406.36a124.61,124.61,0,0,1-62.42-16.76c-209.74-121-340.33-346.35-340.81-588.24A125.17,125.17,0,0,1,213.64,675.94h.26A125.18,125.18,0,0,1,339.07,800.86c.3,152.88,82.89,295.37,215.53,371.86a125.2,125.2,0,0,1-62.66,233.64Zm555.05-.59a125.2,125.2,0,0,1-62.89-233.51c132.47-76.76,214.75-219.4,214.75-372.28v-2.26a125.18,125.18,0,0,1,250.36,0v.76c0,.25,0,1.25,0,1.5,0,241.87-130.12,467.52-339.58,588.9A124.68,124.68,0,0,1,1047,1405.77ZM490.18,445.15a125.2,125.2,0,0,1-63.11-233.38,680,680,0,0,1,341.85-92h0a680.28,680.28,0,0,1,338.22,89.94A125.18,125.18,0,0,1,982.56,426.8,429.67,429.67,0,0,0,769,370.09h0a429.38,429.38,0,0,0-215.88,58A124.64,124.64,0,0,1,490.18,445.15Z" transform="translate(-33.08 0)"/>
    </g>
    <g class="cls-11">
      <path class="cls-2" d="M491.94,1399.41A117.81,117.81,0,0,1,433,1383.58C225.4,1263.85,96.13,1040.76,95.67,801.35a118.21,118.21,0,0,1,118-118.46h.24a118.22,118.22,0,0,1,118.22,118c.31,155.35,84.23,300.14,219,377.86a118.25,118.25,0,0,1-59.18,220.67Zm555-.59a118.24,118.24,0,0,1-59.39-220.54c134.6-78,218.22-222.95,218.22-378.3v-2.26a118.22,118.22,0,1,1,236.44,0v.81c0,.26,0,1.19,0,1.45,0,239.4-128.79,462.74-336.1,582.88A117.76,117.76,0,0,1,1047,1398.82ZM490.17,438.19a118.24,118.24,0,0,1-59.6-220.41,673,673,0,0,1,338.35-91.1h0a673.39,673.39,0,0,1,334.76,89A118.22,118.22,0,0,1,986,420.77,436.6,436.6,0,0,0,769,363.13h0a436.3,436.3,0,0,0-219.38,59A117.75,117.75,0,0,1,490.17,438.19Z" transform="translate(-33.08 0)"/>
    </g>
    <g class="cls-12">
      <path class="cls-2" d="M492,1392.45a110.73,110.73,0,0,1-55.48-14.9C231,1259.07,103.09,1038.27,102.61,801.33A111.28,111.28,0,0,1,213.66,689.84h.24A111.28,111.28,0,0,1,325.16,800.9c.31,157.81,85.56,304.91,222.49,383.87A111.28,111.28,0,0,1,492,1392.45Zm555-.59a111.28,111.28,0,0,1-55.89-207.56c136.73-79.24,221.67-226.5,221.67-384.32v-2.26a111.28,111.28,0,0,1,222.55,0v.85c0,.28,0,1.13,0,1.41,0,236.93-127.46,458-332.64,576.86A110.73,110.73,0,0,1,1047,1391.86ZM490.16,431.24A111.28,111.28,0,0,1,434.07,223.8a666.09,666.09,0,0,1,334.85-90.16h0a666.44,666.44,0,0,1,331.31,88.09,111.28,111.28,0,0,1-110.8,193A443.48,443.48,0,0,0,769,356.18h0a443.25,443.25,0,0,0-222.88,59.93A110.82,110.82,0,0,1,490.16,431.24Z" transform="translate(-33.08 0)"/>
    </g>
    <g class="cls-13">
      <path class="cls-2" d="M492,1385.49a103.92,103.92,0,0,1-52-14C236.62,1254.28,110,1035.78,109.57,801.32A104.32,104.32,0,0,1,213.68,696.8h.21A104.31,104.31,0,0,1,318.2,800.9c.32,160.3,86.91,309.7,226,389.9A104.32,104.32,0,0,1,492,1385.49Zm555-.59a104.33,104.33,0,0,1-52.4-194.59c138.87-80.48,225.14-230,225.14-390.33v-2.26a104.32,104.32,0,1,1,208.63,0v.91c0,.29,0,1.06,0,1.35,0,234.45-126.13,453.19-329.17,570.85A103.86,103.86,0,0,1,1047,1384.9ZM490.16,424.28a104.32,104.32,0,0,1-52.59-194.47,659,659,0,0,1,331.35-89.22h0a659.49,659.49,0,0,1,327.84,87.17,104.32,104.32,0,0,1-103.86,181,450.41,450.41,0,0,0-224-59.49h0A450.22,450.22,0,0,0,542.55,410.1,103.86,103.86,0,0,1,490.16,424.28Z" transform="translate(-33.08 0)"/>
    </g>
    <g class="cls-14">
      <path class="cls-2" d="M492,1378.54a96.92,96.92,0,0,1-48.56-13c-201.16-116-326.42-332.2-326.88-564.19a97.36,97.36,0,0,1,97.16-97.56h.2a97.35,97.35,0,0,1,97.35,97.17c.33,162.76,88.25,314.47,229.46,395.9A97.37,97.37,0,0,1,492,1378.54Zm555-.59a97.38,97.38,0,0,1-48.91-181.62c141-81.72,228.62-233.59,228.62-396.35v-2.26a97.36,97.36,0,1,1,194.72,0v1c0,.32,0,1,0,1.29,0,232-124.81,448.41-325.71,564.83A96.85,96.85,0,0,1,1047,1378ZM490.15,417.33a97.37,97.37,0,0,1-49.08-181.51,652.08,652.08,0,0,1,327.85-88.28h0a652.53,652.53,0,0,1,324.39,86.25A97.37,97.37,0,0,1,996.4,402.68,457.41,457.41,0,0,0,769,342.27h0a457.12,457.12,0,0,0-229.88,61.82A96.9,96.9,0,0,1,490.15,417.33Z" transform="translate(-33.08 0)"/>
    </g>
    <g class="cls-15">
      <path class="cls-2" d="M492,1371.58a89.92,89.92,0,0,1-45.08-12.1c-199-114.78-322.95-328.67-323.41-558.19a90.41,90.41,0,0,1,90.22-90.58h.19a90.41,90.41,0,0,1,90.41,90.23c.32,165.24,89.57,319.23,232.93,401.9A90.42,90.42,0,0,1,492,1371.58Zm555-.59a90.42,90.42,0,0,1-45.42-168.64c143.16-83,232.09-237.14,232.09-402.37v-2.26a90.41,90.41,0,1,1,180.82,0v1c0,.33,0,.88,0,1.21,0,229.51-123.48,443.63-322.24,558.81A90,90,0,0,1,1047,1371ZM490.14,410.37a90.41,90.41,0,0,1-45.58-168.54A645.23,645.23,0,0,1,768.92,154.5h0a645.55,645.55,0,0,1,320.93,85.32,90.41,90.41,0,1,1-90,156.82A464.41,464.41,0,0,0,769,335.31h0a464.13,464.13,0,0,0-233.37,62.77A90.1,90.1,0,0,1,490.14,410.37Z" transform="translate(-33.08 0)"/>
    </g>
    <g class="cls-16">
      <path class="cls-2" d="M492,1364.63a83.06,83.06,0,0,1-41.61-11.18c-196.89-113.54-319.48-325.12-319.93-552.17a83.46,83.46,0,0,1,83.29-83.62h.17A83.46,83.46,0,0,1,297.34,801c.34,167.71,90.92,324,236.41,407.92A83.47,83.47,0,0,1,492,1364.63Zm555-.59A83.47,83.47,0,0,1,1005,1208.36c145.29-84.19,235.54-240.67,235.54-408.38v-2.26a83.45,83.45,0,1,1,166.9,0v1.13c0,.36,0,.77,0,1.13,0,227-122.14,438.85-318.78,552.8A83,83,0,0,1,1047,1364ZM490.14,403.42a83.47,83.47,0,0,1-42.07-155.59,638.19,638.19,0,0,1,320.85-86.37h0a638.49,638.49,0,0,1,317.46,84.4,83.45,83.45,0,1,1-83.08,144.75A471.47,471.47,0,0,0,769,328.36h0a471.15,471.15,0,0,0-236.88,63.71A83.06,83.06,0,0,1,490.14,403.42Z" transform="translate(-33.08 0)"/>
    </g>
    <g class="cls-17">
      <path class="cls-2" d="M492,1357.67a76.17,76.17,0,0,1-38.14-10.24c-194.75-112.31-316-321.59-316.45-546.16a76.51,76.51,0,0,1,76.34-76.66h.16A76.5,76.5,0,0,1,290.38,801c.34,170.19,92.27,328.79,239.89,413.93A76.51,76.51,0,0,1,492,1357.67Zm555-.59a76.51,76.51,0,0,1-38.43-142.7c147.43-85.43,239-244.22,239-414.4v-2.26a76.5,76.5,0,1,1,153,0v1.22c0,225.6-120.81,435.12-315.3,547.82A76.18,76.18,0,0,1,1046.94,1357.08ZM490.13,396.46a76.51,76.51,0,0,1-38.57-142.62,631.4,631.4,0,0,1,317.36-85.43h0a631.59,631.59,0,0,1,314,83.48,76.5,76.5,0,1,1-76.16,132.69A478.34,478.34,0,0,0,769,321.41h0a478,478,0,0,0-240.37,64.65A76.21,76.21,0,0,1,490.13,396.46Z" transform="translate(-33.08 0)"/>
    </g>
    <g class="cls-18">
      <path class="cls-2" d="M492,1350.72a69.11,69.11,0,0,1-34.68-9.32c-192.61-111.07-312.53-318-313-540.15a69.55,69.55,0,0,1,69.4-69.68h.15A69.55,69.55,0,0,1,283.43,801c.34,172.65,93.59,333.56,243.36,419.94A69.55,69.55,0,0,1,492,1350.72Zm554.93-.59A69.55,69.55,0,0,1,1012,1220.4c149.56-86.68,242.48-247.77,242.48-420.42v-2.26a69.55,69.55,0,0,1,139.1,0V799c0,223-119.49,430.24-311.83,541.7A69.26,69.26,0,0,1,1046.93,1350.13ZM490.12,389.51a69.56,69.56,0,0,1-35.05-129.66,624.29,624.29,0,0,1,313.85-84.48h0a624.65,624.65,0,0,1,310.55,82.55,69.55,69.55,0,1,1-69.26,120.63A485.28,485.28,0,0,0,769,314.45h0a485,485,0,0,0-243.87,65.6A69.18,69.18,0,0,1,490.12,389.51Z" transform="translate(-33.08 0)"/>
    </g>
    <g class="cls-19">
      <path class="cls-2" d="M492,1343.76a62.3,62.3,0,0,1-31.21-8.38c-190.47-109.84-309-314.51-309.49-534.14a62.58,62.58,0,0,1,62.46-62.71h.13A62.58,62.58,0,0,1,276.48,801c.34,175.13,94.93,338.34,246.84,426A62.6,62.6,0,0,1,492,1343.76Zm554.93-.59a62.6,62.6,0,0,1-31.45-116.75c151.72-87.92,246-251.31,246-426.44v-2.26a62.59,62.59,0,1,1,125.18,0v1.41c0,220.47-118.15,425.37-308.36,535.6A62.36,62.36,0,0,1,1046.93,1343.17ZM490.12,382.55a62.6,62.6,0,0,1-31.56-116.69,617.42,617.42,0,0,1,310.36-83.54h0A617.72,617.72,0,0,1,1076,264a62.59,62.59,0,1,1-62.32,108.57A492.23,492.23,0,0,0,769,307.5h0A492,492,0,0,0,521.56,374,62.32,62.32,0,0,1,490.12,382.55Z" transform="translate(-33.08 0)"/>
    </g>
    <g class="cls-20">
      <path class="cls-2" d="M492,1336.8a55.41,55.41,0,0,1-27.74-7.44c-188.33-108.61-305.59-311-306-528.13a55.62,55.62,0,0,1,55.52-55.75h.11A55.63,55.63,0,0,1,269.52,801c.36,177.6,96.28,343.12,250.33,432A55.64,55.64,0,0,1,492,1336.8Zm554.91-.59a55.64,55.64,0,0,1-28-103.78C1172.82,1143.28,1268.4,977.58,1268.4,800v-2.26a55.63,55.63,0,1,1,111.26,0v1.5c0,217.91-116.83,420.5-304.9,529.49A55.46,55.46,0,0,1,1046.92,1336.21ZM490.11,375.59a55.64,55.64,0,0,1-28-103.72,610.4,610.4,0,0,1,306.85-82.6h0A610.73,610.73,0,0,1,1072.57,270a55.64,55.64,0,0,1-55.4,96.51A499.14,499.14,0,0,0,769,300.54h0A499,499,0,0,0,518.05,368,55.31,55.31,0,0,1,490.11,375.59Z" transform="translate(-33.08 0)"/>
    </g>
    <g class="cls-21">
      <path class="cls-2" d="M492,1329.85a48.43,48.43,0,0,1-24.28-6.52C281.56,1216,165.63,1015.89,165.2,801.21a48.7,48.7,0,0,1,48.6-48.78h.09A48.69,48.69,0,0,1,262.57,801c.36,180.07,97.6,347.89,253.8,438A48.68,48.68,0,0,1,492,1329.85Zm554.89-.59a48.68,48.68,0,0,1-24.45-90.81c156-90.39,252.88-258.4,252.88-438.47v-2.26a48.69,48.69,0,0,1,97.37,0v1.6c0,215.34-115.49,415.63-301.43,523.37A48.45,48.45,0,0,1,1046.91,1329.26ZM490.1,368.64a48.69,48.69,0,0,1-24.54-90.76,603.4,603.4,0,0,1,303.36-81.65h0A603.76,603.76,0,0,1,1069.1,276a48.68,48.68,0,0,1-48.46,84.45A506.17,506.17,0,0,0,769,293.59h0A505.91,505.91,0,0,0,514.56,362,48.46,48.46,0,0,1,490.1,368.64Z" transform="translate(-33.08 0)"/>
    </g>
    <g class="cls-22">
      <path class="cls-2" d="M492,1322.89a41.6,41.6,0,0,1-20.81-5.58c-184-106.14-298.63-303.9-299-516.11a41.73,41.73,0,0,1,41.65-41.81h.08A41.72,41.72,0,0,1,255.61,801c.37,182.55,98.95,352.67,257.29,444A41.73,41.73,0,0,1,492,1322.89Zm554.89-.59a41.73,41.73,0,0,1-21-77.83c158.13-91.64,256.36-262,256.36-444.49v-2.26a41.73,41.73,0,1,1,83.45,0v1.7c0,212.76-114.17,410.75-298,517.25A41.5,41.5,0,0,1,1046.91,1322.3ZM490.1,361.68a41.73,41.73,0,0,1-21-77.79,596.47,596.47,0,0,1,299.86-80.71h0a596.67,596.67,0,0,1,296.69,78.87,41.73,41.73,0,0,1-41.54,72.38A513.18,513.18,0,0,0,769,286.63h0A512.93,512.93,0,0,0,511.05,356,41.55,41.55,0,0,1,490.1,361.68Z" transform="translate(-33.08 0)"/>
    </g>
    <g class="cls-23">
      <path class="cls-2" d="M492,1315.94a34.56,34.56,0,0,1-17.34-4.66c-181.9-104.9-295.15-300.36-295.57-510.09a34.77,34.77,0,0,1,34.7-34.85h.07A34.77,34.77,0,0,1,248.66,801c.36,185,100.29,357.45,260.77,450a34.78,34.78,0,0,1-17.4,64.9Zm554.87-.59a34.78,34.78,0,0,1-17.46-64.87C1189.7,1157.61,1289.26,985,1289.26,800v-2.26a34.77,34.77,0,1,1,69.54,0v1.79c0,210.2-112.85,405.88-294.5,511.15A34.58,34.58,0,0,1,1046.9,1315.35ZM490.09,354.73a34.78,34.78,0,0,1-17.53-64.83,589.54,589.54,0,0,1,296.36-79.77h0a589.8,589.8,0,0,1,293.23,77.95,34.77,34.77,0,0,1-34.62,60.31A520.16,520.16,0,0,0,769,279.68h0A519.77,519.77,0,0,0,507.56,350,34.7,34.7,0,0,1,490.09,354.73Z" transform="translate(-33.08 0)"/>
    </g>
    <g class="cls-24">
      <path class="cls-2" d="M492,1309a27.64,27.64,0,0,1-13.87-3.72C298.4,1201.6,186.48,1008.44,186.07,801.17a27.81,27.81,0,0,1,27.77-27.87h0a27.82,27.82,0,0,1,27.82,27.76c.37,187.49,101.62,362.22,264.24,456A27.82,27.82,0,0,1,492,1309Zm554.87-.59a27.82,27.82,0,0,1-14-51.89c162.4-94.11,263.29-269,263.29-456.52v-2.26a27.82,27.82,0,1,1,55.64,0v1.89c0,207.63-111.51,401-291,505A27.72,27.72,0,0,1,1046.9,1308.39ZM490.09,347.77a27.81,27.81,0,0,1-14-51.85,582.51,582.51,0,0,1,292.86-78.83h0a582.73,582.73,0,0,1,289.76,77A27.81,27.81,0,0,1,1031,342.36,527.24,527.24,0,0,0,769,272.72h0A526.84,526.84,0,0,0,504.06,344,27.62,27.62,0,0,1,490.09,347.77Z" transform="translate(-33.08 0)"/>
    </g>
    <path class="cls-2" d="M492,1302a20.74,20.74,0,0,1-10.41-2.8C304,1196.81,193.43,1006,193,801.16a20.87,20.87,0,0,1,20.83-20.91h0a20.86,20.86,0,0,1,20.86,20.82c.38,190,103,367,267.73,462A20.87,20.87,0,0,1,492,1302Zm554.85-.59a20.86,20.86,0,0,1-10.48-38.92C1201,1167.17,1303.16,989.94,1303.16,800v-2.26a20.87,20.87,0,1,1,41.73,0v2c0,205.06-110.18,396.13-287.56,498.92A20.77,20.77,0,0,1,1046.89,1301.44ZM490.08,340.82a20.87,20.87,0,0,1-10.52-38.9A575.54,575.54,0,0,1,768.92,224h0a575.9,575.9,0,0,1,286.31,76.1,20.87,20.87,0,0,1-20.78,36.19A534,534,0,0,0,769,265.77h0A533.77,533.77,0,0,0,500.56,338,20.81,20.81,0,0,1,490.08,340.82Z" transform="translate(-33.08 0)"/>
    <path class="cls-25" d="M492.05,1293.68a12.58,12.58,0,0,1-6.25-1.67c-175-101-284-289-284.43-490.87a12.53,12.53,0,0,1,12.5-12.55h0a12.53,12.53,0,0,1,12.52,12.5C226.78,994,331,1173.81,498.31,1270.32a12.52,12.52,0,0,1-6.26,23.36Zm554.83-.59a12.52,12.52,0,0,1-6.29-23.35C1207.7,1172.9,1311.51,992.9,1311.51,800v-2.26a12.52,12.52,0,1,1,25,0v2.09c0,202-108.6,390.29-283.41,491.59A12.38,12.38,0,0,1,1046.88,1293.09ZM490.07,332.47a12.52,12.52,0,0,1-6.31-23.34,567.26,567.26,0,0,1,285.16-76.74h0a567.56,567.56,0,0,1,282.16,75,12.52,12.52,0,0,1-12.47,21.71A542.46,542.46,0,0,0,769,257.43h0a542,542,0,0,0-272.56,73.34A12.5,12.5,0,0,1,490.07,332.47Z" transform="translate(-33.08 0)"/>
    <path class="cls-26" d="M492.06,1285.33a4.24,4.24,0,0,1-2.09-.55C317.5,1185.31,210.11,1000,209.71,801.12a4.19,4.19,0,0,1,4.17-4.18h0a4.17,4.17,0,0,1,4.17,4.16c.39,195.9,106.17,378.46,276.09,476.44a4.18,4.18,0,0,1-2.09,7.79Zm554.81-.59a4.17,4.17,0,0,1-2.09-7.78c169.67-98.33,275.07-281.09,275.07-477v-2.26a4.18,4.18,0,0,1,8.35,0v2.21c0,198.91-107,384.44-279.24,484.25A4.18,4.18,0,0,1,1046.87,1284.74ZM490.06,324.12a4.17,4.17,0,0,1-2.1-7.77,558.79,558.79,0,0,1,281-75.61h0a559.09,559.09,0,0,1,278,73.88,4.17,4.17,0,1,1-4.16,7.23A550.86,550.86,0,0,0,769,249.08h0a550.42,550.42,0,0,0-276.76,74.48A4.21,4.21,0,0,1,490.06,324.12Z" transform="translate(-33.08 0)"/>
  </g>
  <g>
    <g class="cls-1">
      <path class="cls-2" d="M769.47,1468.78a180.82,180.82,0,0,1-.18-361.63c169.19-.18,306.83-138,306.83-307.17v-2a180.82,180.82,0,0,1,180.82-180.82c99.86,0,180.81,81,180.81,180.82v2c0,368.39-299.71,668.41-668.09,668.8ZM281,981.31c-99.87,0-180.81-80.45-180.81-180.31v-1c0-367.64,299.08-667.66,666.71-668.79h.56A180.82,180.82,0,0,1,768,492.82c-168.84.52-306.2,138.31-306.2,307.16C461.79,899.84,380.84,981.31,281,981.31Z" transform="translate(-33.08 0)"/>
    </g>
    <g class="cls-3">
      <path class="cls-2" d="M769.47,1461.82a173.86,173.86,0,0,1-.18-347.72c173-.18,313.78-141.09,313.78-314.12v-2a173.87,173.87,0,0,1,347.73,0v2c0,364.56-296.59,661.46-661.14,661.84ZM281,974.35C185,974.35,107.12,897,107.12,801v-1c0-363.82,296-660.72,659.78-661.83h.54A173.86,173.86,0,0,1,768,485.86C595.31,486.39,454.84,627.31,454.84,800,454.84,896,377,974.35,281,974.35Z" transform="translate(-33.08 0)"/>
    </g>
    <g class="cls-4">
      <path class="cls-2" d="M769.47,1454.87a166.91,166.91,0,0,1-.17-333.81C946.15,1120.87,1090,976.84,1090,800v-2a166.91,166.91,0,1,1,333.81,0v2c0,360.73-293.47,654.51-654.2,654.89ZM281,967.4c-92.18,0-166.91-74.22-166.91-166.4v-1c0-360,292.87-653.77,652.86-654.88h.51a166.91,166.91,0,0,1,.5,333.81C591.46,479.45,447.89,623.49,447.89,800,447.89,892.16,373.16,967.4,281,967.4Z" transform="translate(-33.08 0)"/>
    </g>
    <g class="cls-5">
      <path class="cls-2" d="M769.47,1447.91a160,160,0,0,1-.16-319.9C950,1127.82,1097,980.67,1097,800v-2a159.95,159.95,0,1,1,319.89,0v2c0,356.9-290.35,647.56-647.25,647.93ZM281,960.45c-88.34,0-160-71.11-160-159.45v-1C121,443.81,410.78,153.15,767,152.06h.49A160,160,0,0,1,767.92,472c-180.3.55-327,147.7-327,328C440.93,888.32,369.32,960.45,281,960.45Z" transform="translate(-33.08 0)"/>
    </g>
    <g class="cls-6">
      <path class="cls-2" d="M769.47,1441a153,153,0,0,1-.16-306c184.52-.2,334.63-150.47,334.63-335v-2a153,153,0,0,1,306,0v2c0,353.07-287.25,640.61-640.31,641ZM281,953.49c-84.5,0-153-68-153-152.49v-1c0-352.35,286.64-639.89,639-641h.47a153,153,0,0,1,.46,306C583.77,465.57,434,615.84,434,800,434,884.48,365.48,953.49,281,953.49Z" transform="translate(-33.08 0)"/>
    </g>
    <g class="cls-7">
      <path class="cls-2" d="M769.47,1434a146,146,0,0,1-.15-292.08c188.35-.19,341.57-153.59,341.57-341.94v-2A146,146,0,1,1,1403,798v2c0,349.24-284.12,633.66-633.35,634ZM281,946.54c-80.66,0-146-64.88-146-145.54v-1C134.94,451.45,418.47,167,767,166h.45a146,146,0,0,1,.44,292.09C579.93,458.62,427,612,427,800,427,880.64,361.64,946.54,281,946.54Z" transform="translate(-33.08 0)"/>
    </g>
    <g class="cls-8">
      <path class="cls-2" d="M769.47,1427.05a139.09,139.09,0,0,1-.14-278.18c192.17-.2,348.52-156.71,348.52-348.89v-2A139.09,139.09,0,1,1,1396,798v2c0,345.41-281,626.71-626.41,627.07ZM281,939.58c-76.82,0-139.08-61.76-139.08-138.58v-1c0-344.7,280.42-626,625.11-627.06h.43a139.09,139.09,0,0,1,.42,278.17c-191.77.59-347.8,157.1-347.8,348.89C420.06,876.8,357.8,939.58,281,939.58Z" transform="translate(-33.08 0)"/>
    </g>
    <g class="cls-9">
      <path class="cls-2" d="M769.47,1420.09a132.13,132.13,0,0,1-.13-264.26c196-.2,355.46-159.84,355.46-355.85v-2a132.14,132.14,0,1,1,264.27,0v2c0,341.58-277.89,619.76-619.46,620.11ZM281,932.62C208,932.62,148.84,874,148.84,801v-1c0-340.88,277.33-619.06,618.19-620.11h.41a132.14,132.14,0,0,1,.4,264.27c-195.6.6-354.72,160.23-354.72,355.84C413.12,873,354,932.62,281,932.62Z" transform="translate(-33.08 0)"/>
    </g>
    <g class="cls-10">
      <path class="cls-2" d="M769.47,1413.14a125.18,125.18,0,0,1-.13-250.36c199.84-.21,362.42-163,362.42-362.8v-2a125.18,125.18,0,1,1,250.35,0v2c0,337.75-274.77,612.81-612.51,613.16ZM281,925.67c-69.13,0-125.18-55.53-125.18-124.67v-1c0-337.06,274.21-612.12,611.25-613.15h.39a125.18,125.18,0,0,1,.38,250.35C568.4,437.8,406.16,600.55,406.16,800,406.16,869.12,350.11,925.67,281,925.67Z" transform="translate(-33.08 0)"/>
    </g>
    <g class="cls-11">
      <path class="cls-2" d="M769.47,1406.19a118.23,118.23,0,0,1-.12-236.45c203.67-.21,369.36-166.09,369.36-369.76v-2a118.23,118.23,0,1,1,236.45,0v2c0,333.92-271.65,605.86-605.57,606.21ZM281,918.72c-65.29,0-118.22-52.42-118.22-117.72v-1c0-333.23,271.09-605.18,604.31-606.2h.37a118.23,118.23,0,0,1,.36,236.45c-203.24.62-368.6,166.5-368.6,369.75C399.2,865.28,346.27,918.72,281,918.72Z" transform="translate(-33.08 0)"/>
    </g>
    <g class="cls-12">
      <path class="cls-2" d="M769.47,1399.23a111.27,111.27,0,0,1-.11-222.54c207.49-.22,376.3-169.2,376.3-376.71v-2a111.28,111.28,0,0,1,222.55,0v2c0,330.09-268.54,598.91-598.63,599.25ZM281,911.76c-61.45,0-111.27-49.3-111.27-110.76v-1c0-329.41,268-598.23,597.38-599.24h.35a111.27,111.27,0,0,1,.34,222.53C560.71,423.91,392.25,592.9,392.25,800,392.25,861.44,342.43,911.76,281,911.76Z" transform="translate(-33.08 0)"/>
    </g>
    <g class="cls-13">
      <path class="cls-2" d="M769.47,1392.28a104.32,104.32,0,0,1-.11-208.63c211.33-.22,383.26-172.34,383.26-383.67v-2a104.32,104.32,0,1,1,208.63,0v2c0,326.26-265.42,592-591.67,592.3ZM281,904.81c-57.61,0-104.32-46.19-104.32-103.81v-1c0-325.59,264.88-591.29,590.46-592.29h.32a104.32,104.32,0,0,1,.31,208.63C556.87,417,385.3,589.08,385.3,800,385.3,857.6,338.59,904.81,281,904.81Z" transform="translate(-33.08 0)"/>
    </g>
    <g class="cls-14">
      <path class="cls-2" d="M769.47,1385.33a97.37,97.37,0,0,1-.1-194.73c215.16-.23,390.21-175.45,390.21-390.62v-2a97.36,97.36,0,1,1,194.71,0v2c0,322.43-262.29,585-584.72,585.35ZM281,897.86c-53.77,0-97.36-43.09-97.36-96.86v-1c0-321.77,261.76-584.35,583.52-585.34h.3a97.37,97.37,0,0,1,.29,194.73C553,410,378.34,585.25,378.34,800,378.34,853.76,334.75,897.86,281,897.86Z" transform="translate(-33.08 0)"/>
    </g>
    <g class="cls-15">
      <path class="cls-2" d="M769.47,1378.37a90.41,90.41,0,0,1-.09-180.81c219-.23,397.14-178.58,397.14-397.58v-2a90.42,90.42,0,0,1,180.83,0v2c0,318.6-259.19,578.06-577.79,578.39ZM281,890.9c-49.93,0-90.41-40-90.41-89.9v-1c0-317.94,258.66-577.41,576.59-578.38h.28a90.41,90.41,0,0,1,.27,180.81c-218.53.67-396.32,179-396.32,397.57C371.39,849.92,330.91,890.9,281,890.9Z" transform="translate(-33.08 0)"/>
    </g>
    <g class="cls-16">
      <path class="cls-2" d="M769.47,1371.41a83.45,83.45,0,0,1-.09-166.9c222.82-.23,404.1-181.7,404.1-404.53v-2a83.46,83.46,0,1,1,166.91,0v2c0,314.76-256.08,571.11-570.83,571.43ZM281,884c-46.09,0-83.45-36.86-83.45-83v-1c0-314.12,255.54-570.46,569.65-571.43h.26a83.46,83.46,0,0,1,.25,166.91C545.34,396.14,364.43,577.61,364.43,800,364.43,846.07,327.07,884,281,884Z" transform="translate(-33.08 0)"/>
    </g>
    <g class="cls-17">
      <path class="cls-2" d="M769.47,1364.46a76.5,76.5,0,0,1-.08-153c226.65-.23,411.05-184.82,411.05-411.48v-2a76.5,76.5,0,1,1,153,0v2c0,310.93-253,564.16-563.88,564.48ZM281,877c-42.25,0-76.5-33.74-76.5-76v-1c0-310.3,252.43-563.52,562.72-564.48h.23a76.51,76.51,0,0,1,.24,153c-226.19.69-410.2,185.28-410.2,411.47C357.47,842.23,323.23,877,281,877Z" transform="translate(-33.08 0)"/>
    </g>
    <g class="cls-18">
      <path class="cls-2" d="M769.47,1357.5a69.54,69.54,0,0,1-.07-139.08c230.48-.24,418-188,418-418.44v-2a69.55,69.55,0,1,1,139.09,0v2c0,307.1-249.84,557.21-556.94,557.52ZM281,870a69.12,69.12,0,0,1-69.55-69v-1c0-306.48,249.33-556.58,555.79-557.52h.21a69.55,69.55,0,0,1,.22,139.09C537.64,382.26,350.53,570,350.53,800,350.53,838.39,319.38,870,281,870Z" transform="translate(-33.08 0)"/>
    </g>
    <g class="cls-19">
      <path class="cls-2" d="M769.47,1350.55a62.59,62.59,0,0,1-.06-125.18c234.3-.24,424.94-191.07,424.94-425.39v-2a62.59,62.59,0,1,1,125.17,0v2c0,303.27-246.72,550.26-550,550.57ZM281,863.08A62.15,62.15,0,0,1,218.39,801v-1c0-302.65,246.21-549.64,548.85-550.56h.19a62.59,62.59,0,0,1,.2,125.17C533.8,375.31,343.57,566.14,343.57,800,343.57,834.55,315.54,863.08,281,863.08Z" transform="translate(-33.08 0)"/>
    </g>
    <g class="cls-20">
      <path class="cls-2" d="M769.47,1343.6a55.64,55.64,0,0,1-.06-111.28c238.14-.24,431.89-194.19,431.89-432.34v-2a55.64,55.64,0,1,1,111.27,0v2c0,299.44-243.61,543.3-543,543.62ZM281,856.13A55.2,55.2,0,0,1,225.35,801v-1c0-298.83,243.1-542.69,541.91-543.61h.17a55.64,55.64,0,0,1,.18,111.27c-237.66.73-431,194.68-431,432.34C336.61,830.71,311.7,856.13,281,856.13Z" transform="translate(-33.08 0)"/>
    </g>
    <g class="cls-21">
      <path class="cls-2" d="M769.47,1336.64a48.68,48.68,0,0,1-.05-97.36c242-.25,438.83-197.32,438.83-439.3v-2a48.69,48.69,0,0,1,97.37,0v2c0,295.61-240.5,536.36-536.1,536.66ZM281,849.17c-26.88,0-48.68-21.28-48.68-48.17v-1c0-295,240-535.75,535-536.65a48.68,48.68,0,1,1,.31,97.35c-241.48.75-437.93,197.81-437.93,439.3C329.66,826.87,307.86,849.17,281,849.17Z" transform="translate(-33.08 0)"/>
    </g>
    <g class="cls-22">
      <path class="cls-2" d="M769.47,1329.69a41.73,41.73,0,0,1,0-83.45c245.81-.26,445.78-200.45,445.78-446.26v-2a41.73,41.73,0,1,1,83.45,0v2c0,291.78-237.37,529.4-529.15,529.71ZM281,842.22c-23,0-41.73-18.17-41.73-41.22v-1c0-291.18,236.88-528.8,528.05-529.7h.13a41.73,41.73,0,0,1,.14,83.45c-245.3.76-444.86,200.94-444.86,446.25C322.71,823,304,842.22,281,842.22Z" transform="translate(-33.08 0)"/>
    </g>
    <g class="cls-23">
      <path class="cls-2" d="M769.47,1322.74a34.78,34.78,0,0,1,0-69.55c249.64-.26,452.74-203.57,452.74-453.21v-2a34.77,34.77,0,1,1,69.53,0v2c0,288-234.25,522.45-522.19,522.76ZM281,835.27c-19.2,0-34.77-15.07-34.77-34.27v-1c0-287.36,233.77-521.86,521.12-522.75h.1a34.78,34.78,0,0,1,.11,69.55c-249.12.76-451.79,204.07-451.79,453.2C315.75,819.19,300.18,835.27,281,835.27Z" transform="translate(-33.08 0)"/>
    </g>
    <g class="cls-24">
      <path class="cls-2" d="M769.47,1315.78a27.82,27.82,0,0,1,0-55.63c253.47-.27,459.67-206.7,459.67-460.17v-2a27.83,27.83,0,0,1,55.65,0v2c0,284.12-231.15,515.5-515.26,515.8ZM281,828.31c-15.36,0-27.82-11.95-27.82-27.31v-1c0-283.53,230.67-514.92,514.19-515.79h.08a27.82,27.82,0,0,1,.09,55.63C514.58,340.6,308.8,547,308.8,800,308.8,815.35,296.34,828.31,281,828.31Z" transform="translate(-33.08 0)"/>
    </g>
    <path class="cls-2" d="M769.47,1308.82a20.86,20.86,0,0,1,0-41.72c257.3-.27,466.62-209.82,466.62-467.12v-2a20.87,20.87,0,1,1,41.73,0v2c0,280.29-228,508.55-508.31,508.84ZM281,821.36c-11.52,0-20.86-8.84-20.86-20.36v-1c0-279.71,227.55-508,507.25-508.84h.06a20.87,20.87,0,0,1,.07,41.73C510.74,333.66,301.84,543.2,301.84,800,301.84,811.5,292.5,821.36,281,821.36Z" transform="translate(-33.08 0)"/>
    <path class="cls-25" d="M769.47,1300.48a12.52,12.52,0,0,1,0-25c261.89-.27,475-213.56,475-475.46v-2a12.52,12.52,0,1,1,25,0v2c0,275.69-224.29,500.21-500,500.5ZM281,813c-6.92,0-12.52-5.1-12.52-12v-1c0-275.13,223.82-499.65,498.93-500.49h0a12.52,12.52,0,0,1,.05,25c-261.36.8-474,214.09-474,475.45C293.5,806.9,287.9,813,281,813Z" transform="translate(-33.08 0)"/>
    <path class="cls-26" d="M769.47,1292.13a4.17,4.17,0,1,1,0-8.34c266.49-.28,483.29-217.31,483.29-483.81v-2a4.18,4.18,0,1,1,8.35,0v2c0,271.09-220.55,491.87-491.64,492.15ZM281,804.66c-2.3,0-4.18-1.36-4.18-3.66v-1c0-270.54,220.1-491.32,490.62-492.15h0a4.18,4.18,0,1,1,0,8.35C501.51,317,285.16,534,285.16,800,285.16,802.29,283.28,804.66,281,804.66Z" transform="translate(-33.08 0)"/>
  </g>
</svg>
