<svg id="Layer_1" data-name="Layer 1" xmlns="http://www.w3.org/2000/svg" viewBox="0 0 1582.67 1582.67">
  <defs>
    <style>
      .cls-1 {
        fill: #00bce8;
      }
    </style>
  </defs>
  <g>
    <g>
      <g>
        <g>
          <path class="cls-1" d="M752.77,650.94s-16.11,31.42-30.61,42.3c0,0,31.44-8,78.17-59.57v-1.73c-10-.41-68.74-3.17-82.09-11.63Z" transform="translate(-9 -8.67)"/>
          <path class="cls-1" d="M495.07,630.67c-3.41-1.58-6.88-3.14-10.49-4.64-1.8-.75-3.64-1.49-5.52-2.18s-3.81-1.38-5.79-2c-.95-.31-1.91-.59-2.89-.87l11.45-7.59L506,597.51l24.22-16.09c8.08-5.39,16.08-10.94,24.07-16.56,4-2.77,8-5.65,11.94-8.5,2-1.44,4-2.85,5.93-4.31l5.87-4.43c3.91-3,7.82-5.9,11.66-9s7.76-6,11.52-9.18,7.58-6.25,11.3-9.47l11.1-9.71c3.67-3.32,7.29-6.73,10.91-10.1l2.7-2.54,2.59-2.54L645,490l5.26-5.19,5-5a123,123,0,0,1,10-9c6.77-5.37,13.9-9.27,21.51-10.16s16,.93,23.59,5a60.51,60.51,0,0,1,10.83,7.3c.85.71,1.67,1.45,2.48,2.21.41.38.76.74,1.15,1.11s.83.85,1.24,1.27l4.94,5.31c6.7,7.07,13.45,14,20.32,20.89S765,517.36,772,524.11s14,13.43,21,20.09c-5.9-7.7-12-15.21-18-22.81L756.8,498.75c-6-7.56-12.06-15.09-17.92-22.71l-4.43-5.77c-.38-.49-.7-.93-1.13-1.47s-.87-1.08-1.29-1.56c-.85-1-1.72-2-2.62-2.95A68.84,68.84,0,0,0,717.26,454a60.1,60.1,0,0,0-14.73-7.18,49.76,49.76,0,0,0-16.89-2.49,51.16,51.16,0,0,0-16.94,3.52,71.84,71.84,0,0,0-14.57,7.8,144.17,144.17,0,0,0-12.31,9.53q-2.88,2.46-5.61,4.9l-5.37,4.68-5.47,4.77-2.73,2.38-2.73,2.26-10.91,9L597.83,502c-3.74,2.94-7.58,5.76-11.36,8.64s-7.65,5.67-11.47,8.5-7.72,5.58-11.63,8.31l-5.85,4.12-5.91,4c-3.93,2.71-7.85,5.44-11.85,8.09-7.92,5.37-16,10.57-24,15.91l-24.21,15.84c-8.11,5.26-16.15,10.66-24.24,16l-12.09,8.14q-6.06,4.07-12,8.29c-8,5.55-15.91,11.27-23.83,17L343.9,679.28c4.49-3.25,12.29-4.58,17.48-6.57,5.77-2.21,11.53-4.46,17.31-6.66,11.52-4.39,23-8.92,34.63-13,27.3-9.51,56.25-8.41,82.95,2.41l4.54,1.81.34,3.88c.31,3.61.8,7.23,1.2,10.84s1,7.23,1.48,10.84c.24,1.8.53,3.6.85,5.41l.93,5.39c.61,3.6,1.45,7.18,2.16,10.76s1.67,7.12,2.5,10.67,2,7,2.92,10.57,2.16,7,3.29,10.42,2.38,6.88,3.68,10.27,2.55,6.78,4,10.11,2.78,6.67,4.29,9.94,2.92,6.59,4.51,9.81,3.08,6.49,4.71,9.69,3.22,6.41,4.9,9.57l5.07,9.47q2.57,4.72,5.21,9.4-1.58-5.15-3.23-10.24l-3.22-10.22c-1.12-3.39-2.14-6.81-3.2-10.21s-2.1-6.8-3.13-10.2-2-6.81-3-10.2-1.87-6.82-2.79-10.23-1.72-6.82-2.58-10.23-1.51-6.85-2.3-10.25-1.35-6.86-2-10.28-1.14-6.88-1.65-10.32-1-6.88-1.38-10.34-.8-6.9-1-10.38-.65-6.91-.81-10.4-.46-7-.55-10.44l-.34-10.47-.19-10.5-.11-6.36L515,640.13C508.43,637.06,501.89,633.8,495.07,630.67Z" transform="translate(-9 -8.67)"/>
          <path class="cls-1" d="M559,823l1.77,2.51,0,0,0,0,.88,1.26c1.75,2.43,4.27,6,7.42,10.65s7,10.19,11.18,16.68c2.11,3.23,4.3,6.7,6.54,10.37s4.53,7.55,6.74,11.64a128.3,128.3,0,0,1,6.2,12.8,59.51,59.51,0,0,1,2.32,6.63,31.11,31.11,0,0,1,.71,3.18c.07.54.12.89.19,1.62s.1,1.22.14,1.83c.35,5.12.56,10.72.72,16.42s.44,11.64.66,17.62.66,12.13,1.1,18.37,1.1,12.55,1.87,19,1.84,12.89,3.16,19.46a125.27,125.27,0,0,0,5.67,20,65.4,65.4,0,0,0,5,10.45,38.92,38.92,0,0,0,3.94,5.35,29.53,29.53,0,0,0,5.8,5.15,23.71,23.71,0,0,0,8.39,3.52c1,.2,1.18.21,1.59.28l1.24.2,2.52.37q5,.72,10,1.09a189.41,189.41,0,0,0,19.74.54,179.06,179.06,0,0,0,19.25-1.62,159.51,159.51,0,0,0,18.38-3.81,139.74,139.74,0,0,0,17-5.92,123.1,123.1,0,0,0,15.2-7.79,114.68,114.68,0,0,0,13-9.18,116,116,0,0,0,10.59-9.95,113.62,113.62,0,0,0,8.24-10,109.68,109.68,0,0,0,10.54-17.93,115.45,115.45,0,0,0,4.87-12.26c.49-1.44.79-2.56,1-3.31s.34-1.13.34-1.13l-2.59,3.82c-1.7,2.48-4.28,6-7.73,10.34a133,133,0,0,1-13.38,14.36,110.3,110.3,0,0,1-9.09,7.61,108,108,0,0,1-10.77,7.23,110.35,110.35,0,0,1-12.42,6.38,117.19,117.19,0,0,1-14,5.14,130.79,130.79,0,0,1-15.26,3.67,142.45,142.45,0,0,1-16.31,2.06,160.51,160.51,0,0,1-17.06.47c-5.78-.11-11.64-.44-17.5-1.12-2.93-.34-5.87-.72-8.79-1.16l-2.17-.34-1.1-.19a6.12,6.12,0,0,1-.75-.14,1.93,1.93,0,0,1-.3-.19,12.84,12.84,0,0,1-2.94-3.57,42.4,42.4,0,0,1-3.29-6.71,126.93,126.93,0,0,1-5-16.58c-1.41-5.82-2.5-11.82-3.59-17.81s-2-12-2.84-18-1.7-11.95-2.5-17.84S622,922.69,621.17,917s-1.69-11.35-2.9-17.08c-.17-.74-.34-1.48-.5-2.22s-.41-1.57-.6-2.36a47.05,47.05,0,0,0-1.57-4.53,66.09,66.09,0,0,0-3.8-7.82,135.66,135.66,0,0,0-8.57-13.1,255.76,255.76,0,0,0-17-20.44c-5.32-5.79-10.14-10.63-14.18-14.55S564.7,828,562.48,826l-1.06-.93c.61-.41,1.64-1.13,3-2.21-1,.67-2,1.39-3.08,2.17C559.85,823.69,559,823,559,823Z" transform="translate(-9 -8.67)"/>
          <path class="cls-1" d="M593,754.27c-47.33-32.07-34-106.8-34-106.8C528.69,693.1,559,823,559,823Z" transform="translate(-9 -8.67)"/>
          <path class="cls-1" d="M595.21,689.31c-29.3,25.38,9.37,21.45,1.11,57.45,29.17-60.59,92.92-62.06,101.92-62-95.8-.73-118.54-56.38-118.54-56.38C571,652.15,562.28,680.25,595.21,689.31Z" transform="translate(-9 -8.67)"/>
          <path class="cls-1" d="M698.24,684.79c.37,0,.72,0,1.1,0Z" transform="translate(-9 -8.67)"/>
          <path class="cls-1" d="M470.38,621a70.19,70.19,0,0,0,14-3.81Z" transform="translate(-9 -8.67)"/>
          <path class="cls-1" d="M694.5,496.67l-72.86,48.49s25.73,8.1,13.91,21.4c-7.2,8.08-39.48-5.47-39.48-5.47s-74.33,42.7-111.7,56.08l195.92-53.36s-18-10.75-10.56-28.47c11.23-26.7,80.58,32,129.33,38.67v-.72C787.86,566.51,717.44,523.36,694.5,496.67Z" transform="translate(-9 -8.67)"/>
          <path class="cls-1" d="M617.77,755.27c-24.84,42.84-45.25,61.35-53.32,67.59,30.68-20.07,50,11.39,86.95-51.07-45.92,36.85-42.06,13.93-29.6.9,43.2-45.16,99.2-50.26,82.31-70C691,687.46,650,699.68,617.77,755.27Z" transform="translate(-9 -8.67)"/>
          <path class="cls-1" d="M574.05,836.86s77.65,1.39,108.54-40.46c0,0-13.26-23,13.72-61.18C666,756.08,647.57,831.8,574.05,836.86Z" transform="translate(-9 -8.67)"/>
          <path class="cls-1" d="M635.55,840.67s60.76,75.72,117.56,48.59c0,0-43.63,1.46-50.63-39.73-3.14-18.53-13.21-39.25-13.21-39.25S668.92,836.87,635.55,840.67Z" transform="translate(-9 -8.67)"/>
          <path class="cls-1" d="M600.65,852.7c36.23,28.62,37.43,112.52,37.46,115.37-1.55-113,23.26-87.83,23.26-87.83C613.94,822.7,600.65,852.7,600.65,852.7Z" transform="translate(-9 -8.67)"/>
          <path class="cls-1" d="M740.28,812.07c-11.7,5-20,14.9-20,14.9,21.91-14.1,54.63,6.44,54.63,6.44,11.58,2.9,21.76-2.15,25.41-4.31V822c-20.62,2.82-46-7.66-46-7.66,7.25-5.78,32.28-15.68,32.28-15.68s-8.77,14.2-2.87,15.67c11.76,2.94,11.89-6.61,16.54-14.32V777.76C790.39,789.06,755.88,805.44,740.28,812.07Z" transform="translate(-9 -8.67)"/>
          <path class="cls-1" d="M790.77,670.83q-2.28,2.35-4.95,5c-1.85,1.72-3.69,3.57-5.81,5.43s-4.24,3.84-6.59,5.81l-3.54,3-3.77,3.09-3.88,3.16-4.08,3.2L754,702.79l-4.35,3.27-4.48,3.37c-1.56,1.11-3.09,2.13-4.71,3.35-3.26,2.34-6.29,4.76-9.33,7.28a130.76,130.76,0,0,0-16.45,16.31,89.27,89.27,0,0,0-11.91,18.24,69.44,69.44,0,0,0-6.06,18.93,70.16,70.16,0,0,0-.58,18,89.45,89.45,0,0,0,3,15.88,201.85,201.85,0,0,0,8.57,23c1,2.46,1.83,4.45,2.37,5.91s.75,2.47,1,3.3l.61,1.81,1.18,2-.23-1.43c-.08-.47-.16-1-.22-1.72s-.17-1.46-.21-2.33a31.89,31.89,0,0,1,.15-6.23,24.18,24.18,0,0,1,2.27-7.73,27.43,27.43,0,0,1,6.09-8,62,62,0,0,1,10-7.35c3.83-2.35,8.06-4.62,12.46-6.9l6.7-3.42c2.26-1.12,4.57-2.39,6.87-3.59,9.11-4.91,17.82-10.15,25.79-15.21,6.49-4.12,12.45-8.11,17.75-11.75V743.29l-.39.39c-2.83,2.76-6.94,6.7-12,11.36s-11.13,10-17.85,15.62S756,782.08,748.21,787.59l-11.94,8.27c-4,2.79-7.87,5.62-11.44,8.56a59.13,59.13,0,0,0-9.23,9.22,27.18,27.18,0,0,0-4.93,9.61,24,24,0,0,0-.78,5.41,72.1,72.1,0,0,1,.25-12.9,64.87,64.87,0,0,1,2.57-12.22,62,62,0,0,1,5.8-13,69.3,69.3,0,0,1,9.58-12.7,93.34,93.34,0,0,1,13.13-11.42c1.2-.9,2.5-1.72,3.73-2.59s2.54-1.6,3.79-2.41,2.77-1.62,4.14-2.43l4.2-2.33c2.87-1.59,5.72-3.17,8.44-4.81s5.48-3.21,8.07-4.85,5.2-3.23,7.64-4.87l3.66-2.4,3.5-2.41,3.39-2.36,3.22-2.34c1.88-1.34,3.63-2.68,5.33-4V701.7c-.44.57-.92,1.19-1.48,1.89-1.47,1.86-3.37,4.11-5.63,6.67s-5,5.42-8,8.48c-1.54,1.53-3.12,3.14-4.86,4.75L777.73,726,775,728.49l-2.87,2.58-3,2.6c-2,1.77-4.18,3.53-6.4,5.3s-4.48,3.57-6.83,5.36-4.76,3.58-7.23,5.36L746.72,751l-.93.67-.46.34-.57.39c-1.29.91-2.55,1.77-3.87,2.74s-2.67,2-3.93,3-2.51,2-3.69,3.08a92.53,92.53,0,0,0-12.62,13.33,68.54,68.54,0,0,0-8.5,14.28,61.12,61.12,0,0,0-4.33,14,65,65,0,0,0-1,12.76,75,75,0,0,0,1.89,15.26l-.2-.62A194.09,194.09,0,0,1,702,807.1a86,86,0,0,1-1.61-15.65,67.77,67.77,0,0,1,2.09-17.28,68.58,68.58,0,0,1,7.3-17.63A88.82,88.82,0,0,1,722.46,740a130.13,130.13,0,0,1,16.78-14.58c3-2.22,6.17-4.42,9.31-6.41,1.51-1,3.28-2,4.89-3.06l5-2.91,5-2.89,4.85-2.91,4.75-2.85,4.56-2.86,4.44-2.8,4.24-2.78c2.8-1.81,5.42-3.64,7.95-5.39,2.15-1.45,4.12-2.92,6.05-4.33V659.58c-.62.88-1.4,1.9-2.31,3.06C796.21,664.92,793.77,667.69,790.77,670.83Z" transform="translate(-9 -8.67)"/>
          <path class="cls-1" d="M590,325.08c41.45,24.06,64.88,73,38.43,128,0,0,26.9-20.11,43.5-28.39,36.9-18.41,92.53,31.56,92.53,31.56S698.34,324,590,325.08Z" transform="translate(-9 -8.67)"/>
          <path class="cls-1" d="M459.77,347c-36.67,28.26-37.69,88.41-2.29,134.36,19.94,25.87,47.17,41.72,73.71,45.59a96.34,96.34,0,0,1-38.79-30.32c-27.67-35.9-26.87-82.9,1.78-105s74.3-10.87,102,25a96.36,96.36,0,0,1,19.43,45.25c3-26.65-5.36-57-25.29-82.89C554.87,333.07,496.44,318.73,459.77,347Z" transform="translate(-9 -8.67)"/>
          <path class="cls-1" d="M509.5,409.62c-20.66,15.92-21.24,49.81-1.29,75.7,11.23,14.57,26.57,23.5,41.53,25.68,5.83-9.52,37.12-32.36,47.54-36.63,1.7-15-3-32.13-14.25-46.7C563.08,401.78,530.16,393.7,509.5,409.62Z" transform="translate(-9 -8.67)"/>
          <path class="cls-1" d="M684.57,1062s-28.86,8.16-53.49-7.17l47.58,250.87-25.2-221.86S662.82,1081.88,684.57,1062Z" transform="translate(-9 -8.67)"/>
          <path class="cls-1" d="M743.31,1321.94s-61.16-111.6-29-116.84c26.94-4.39,20.21,39.48,20.21,39.48l22.87-51.36-72.82-25.38C682.79,1299.27,743.31,1321.94,743.31,1321.94Z" transform="translate(-9 -8.67)"/>
          <path class="cls-1" d="M800.33,853.46s-5.61,0-5.86,0c-5.82-.3-10.72-4.26-15.7-6.88-5.36-2.82-11.16-5.06-17.3-5.06-14.75,0-21.82,9.09-31.93,9.09S712.17,844,712.17,844s-1.21,18.79,14.55,31.52,29.52,16.77,29.52,16.77S744.09,882,751.16,876.7s17.38-2.22,21.62,4,9.09,16-2.42,20.41c0,0,30,16.16,30,31.52Z" transform="translate(-9 -8.67)"/>
          <path class="cls-1" d="M800.33,1024.21s-9.49-8.68-8.77-21.71A44.18,44.18,0,0,0,774,1023.31s-4-6.34-2.53-13.75c0,0-25.69,35.82-57.53,56.63,0,0,39.8-17,47-23.89l-3.85,23.89s20.49-21.53,28.09-35.47c0,0,3.43,21.9,15.1,32.21Z" transform="translate(-9 -8.67)"/>
          <path class="cls-1" d="M800.33,1120.9a64.57,64.57,0,0,1-16.49-32.53s-6.77,2-11.85,17.62a34.75,34.75,0,0,1-4.75-24,43.18,43.18,0,0,0-15.58,29.47s-34.22-45.06-65.38-49.8c0,0,57.93,66.74,66.4,116.88,0,0,4.74-26.43-2.38-47.09,0,0,21.41,15.34,27.3,31.11q.27.71.48,1.41c5.08,16.26-8.8-31.17-6.77-39.3,0,0,29,31.85,29,87.74Z" transform="translate(-9 -8.67)"/>
          <path class="cls-1" d="M777.66,1191.68s1.31,40,22.67,55.55v105s-26.65-61.48-57-77.24Z" transform="translate(-9 -8.67)"/>
          <path class="cls-1" d="M684.53,1086s37.72,37.27,42.73,77.24l-42.69-14.91S698.45,1123.92,684.53,1086Z" transform="translate(-9 -8.67)"/>
          <path class="cls-1" d="M646.77,1290.6c-10.06-50-67.32-80.91-106.44-104.34-56.13-33.62-104.16-67.65-136.52-126.06-22.14-40-36.74-84-39.05-153.72,11.12,48.74,31.39,86.23,43.68,102.51,24.36,32.27,52.43,59.26,87.6,79.47,33.26,19.11,70.52,33.31,98.9,59.89,21.45,20.09,34.83,47.1,42.1,75.31C642.74,1245.76,642.31,1268.46,646.77,1290.6Z" transform="translate(-9 -8.67)"/>
          <path class="cls-1" d="M559,984.87s-114.18-2.3-167.18-107.32-51.28-157.8-51.28-157.8-46.13,50.91-46.7,125.86c0,0,9.86-38.3,35.09-48.24,0,0,15,92.23-24.43,169.34,0,0,33.81-10.74,57.23-89.83C361.72,876.88,387.38,996.46,559,984.87Z" transform="translate(-9 -8.67)"/>
          <path class="cls-1" d="M387.45,675.82s-33.82,53.26-18.75,107.9c0,0,15.49-60.64,41.45-76.66,0,0-.39,60.38-34.6,88.54,0,0,2.95,159.78,185.67,141,0,0-73.9-10.18-101.79-60.59s-24.75-106-24.75-106,10.47,101.62,107.65,95.2c0,0-89.72-12.46-47.54-192C494.79,673.19,453.63,632,387.45,675.82Z" transform="translate(-9 -8.67)"/>
          <path class="cls-1" d="M505.77,735.22S527.39,819,574.05,866.46s-7.11,126.7,41.68,177.51c0,0-40.52-30.55-44-60.67,0,0-41.4-7.08-80.7-30.79,0,0,48,13.93,78.22-14.38,0,0-48.41-12.72-69.41-57.44,0,0,35.91,8.81,53.52-11.52C553.39,869.17,494.73,788.27,505.77,735.22Z" transform="translate(-9 -8.67)"/>
          <path class="cls-1" d="M395.19,955.22s48.44,76.66,158.2,51.37c0,0,59.29,42.13,68.43,139.69,0,0-21.44-53.48-76.27-80.09C545.55,1066.19,420.6,1052.78,395.19,955.22Z" transform="translate(-9 -8.67)"/>
          <path class="cls-1" d="M419.88,444.3s-59.19,61.08-100.48,178c0,0,25.22-53.65,67.5-61.68,0,0-19.33,86.55-82.41,127,0,0,83.36-41.91,119.28-125.86,0,0,30.84-27.5,84.74-21.79,0,0-18.8-9.58-46.89-25.23C450.41,508.47,415.91,469.75,419.88,444.3Z" transform="translate(-9 -8.67)"/>
          <path class="cls-1" d="M783,928a1.25,1.25,0,0,1-.2.34,7.12,7.12,0,0,1-.82.87l-1.54,1.15c-.64.39-1.4.79-2.26,1.24a62.2,62.2,0,0,1-6.39,2.76c-2.53.81-5.4,1.79-8.57,2.64s-6.61,1.66-10.28,2.42-7.54,1.42-11.56,2.06l-1.52.26-.38.06-.49.06-.76.09c-1,.11-2,.24-3.11.33l-3.44.16c-1.14,0-2.26,0-3.4-.08a49.79,49.79,0,0,1-13.62-2.6,53,53,0,0,1-12.31-6.19,86.92,86.92,0,0,1-10.13-8c-3.06-2.76-5.81-5.55-8.44-8.08s-5.13-4.87-7.54-6.86a61.51,61.51,0,0,0-6.91-4.95,43.75,43.75,0,0,0-5.92-3,41.22,41.22,0,0,0-4.12-1.37l-1.51-.42,1.57,0a27.63,27.63,0,0,1,4.46.27,32.46,32.46,0,0,1,6.83,1.69,44.86,44.86,0,0,1,8.28,3.94,81.64,81.64,0,0,1,8.81,6.08l9.14,7.18c6.22,4.87,13,9.55,20.44,12.06a47.8,47.8,0,0,0,11.5,2.42l2.92.18,2.83,0c1,0,2-.1,3.06-.15l.77,0h.19s.18,0,0,0h.09l.38,0,1.5-.14c4-.38,7.85-.63,11.52-.9s7.09-.73,10.3-1l8.66-1.07c1.27-.23,2.45-.47,3.57-.65a21.71,21.71,0,0,0,3-.61l2.41-.62,1.7-.66A3.83,3.83,0,0,0,783,928Z" transform="translate(-9 -8.67)"/>
          <path class="cls-1" d="M780.49,946.26a3.2,3.2,0,0,1-.06,1.69,13.38,13.38,0,0,1-2.11,4.36,36.4,36.4,0,0,1-4.94,5.65c-1.08.95-2.19,2-3.44,3s-2.59,2.08-4,3.07a107.89,107.89,0,0,1-9.5,6.2c-1.74,1-3.5,2.1-5.35,3.09l-5.77,3a92.45,92.45,0,0,1-12.74,5.14,80.83,80.83,0,0,1-14,3.14,86.81,86.81,0,0,1-14.27.67,117.15,117.15,0,0,1-13.59-1.27c-4.34-.61-8.45-1.46-12.32-2.15s-7.48-1.39-10.83-1.86-6.42-.78-9.16-.9a70,70,0,0,0-7.13.1c-2,.18-3.57.32-4.62.53L645,980l1.52-.69a36.29,36.29,0,0,1,4.45-1.65,57.35,57.35,0,0,1,16.9-2.22c3.53,0,7.34.16,11.3.51l12.32,1c4.23.3,8.56.55,12.92.52a100.7,100.7,0,0,0,13.08-.87,90.62,90.62,0,0,0,12.78-2.7,109.77,109.77,0,0,0,12.08-4.28c3.76-1.63,7.66-3.28,11.17-4.88,1.79-.77,3.46-1.64,5.11-2.43s3.23-1.58,4.74-2.35c3-1.56,5.67-3.12,8-4.55a47.28,47.28,0,0,0,5.66-4.21,15,15,0,0,0,2.94-3.44A3.5,3.5,0,0,0,780.49,946.26Z" transform="translate(-9 -8.67)"/>
          <path class="cls-1" d="M657.82,915.93s-11.81,26.61-7.75,49.89c0,0,23.66-6.68,40.15-1.11,18.8,6.36,55.82-3.55,66-13.72,0,0-22.63,2.54-42.29-1.52S675.79,915.48,657.82,915.93Z" transform="translate(-9 -8.67)"/>
          <path class="cls-1" d="M764.15,976.66s-32,15.75-48.78,17.27-55.14-9.4-70.38-7.11c0,0,3.3,14.73,8.89,20.83C653.88,1007.65,731.88,1016.54,764.15,976.66Z" transform="translate(-9 -8.67)"/>
          <path class="cls-1" d="M783,919.49s-12.35-16.39-29.93-20.67c0,0-28.34,16.94-85.59-13.21C667.52,885.61,735.27,938.12,783,919.49Z" transform="translate(-9 -8.67)"/>
          <path class="cls-1" d="M800,268.48l-17.85,64.44S725.4,263,619.46,306.7c0,0,164.07-5.46,181.17,181.3Z" transform="translate(-9 -8.67)"/>
        </g>
        <g>
          <path class="cls-1" d="M847.9,650.94s16.11,31.42,30.61,42.3c0,0-31.44-8-78.18-59.57v-1.73c10-.41,68.74-3.17,82.1-11.63Z" transform="translate(-9 -8.67)"/>
          <path class="cls-1" d="M1105.6,630.67c3.41-1.58,6.88-3.14,10.49-4.64,1.8-.75,3.63-1.49,5.52-2.18s3.8-1.38,5.78-2c.95-.31,1.92-.59,2.9-.87l-11.46-7.59-24.18-15.88-24.22-16.09c-8.09-5.39-16.08-10.94-24.07-16.56-4-2.77-8-5.65-11.94-8.5-2-1.44-4-2.85-5.94-4.31l-5.86-4.43c-3.92-3-7.83-5.9-11.67-9s-7.75-6-11.52-9.18-7.57-6.25-11.29-9.47L977,510.3c-3.67-3.32-7.29-6.73-10.91-10.1l-2.71-2.54-2.58-2.54L955.67,490l-5.26-5.19-5-5a122.91,122.91,0,0,0-10-9c-6.77-5.37-13.9-9.27-21.52-10.16s-16,.93-23.59,5a61.23,61.23,0,0,0-10.83,7.3c-.84.71-1.66,1.45-2.47,2.21-.42.38-.76.74-1.15,1.11s-.83.85-1.24,1.27l-4.94,5.31c-6.7,7.07-13.45,14-20.32,20.89s-13.77,13.65-20.73,20.4-13.95,13.43-21,20.09c5.89-7.7,12-15.21,18-22.81l18.17-22.64c6-7.56,12.06-15.09,17.92-22.71l4.42-5.77c.39-.49.7-.93,1.14-1.47s.86-1.08,1.29-1.56c.84-1,1.72-2,2.62-2.95A68.77,68.77,0,0,1,883.4,454a60.35,60.35,0,0,1,14.74-7.18A49.76,49.76,0,0,1,915,444.32,51.16,51.16,0,0,1,932,447.84a71.76,71.76,0,0,1,14.56,7.8,142.79,142.79,0,0,1,12.32,9.53q2.88,2.46,5.61,4.9l5.37,4.68,5.46,4.77L978,481.9l2.73,2.26,10.9,9,11.18,8.86c3.73,2.94,7.58,5.76,11.36,8.64s7.64,5.67,11.47,8.5,7.72,5.58,11.63,8.31l5.85,4.12,5.9,4c3.94,2.71,7.85,5.44,11.85,8.09,7.92,5.37,16,10.57,24,15.91l24.21,15.84c8.11,5.26,16.15,10.66,24.23,16l12.1,8.14q6,4.07,12,8.29c8,5.55,15.91,11.27,23.83,17l75.48,54.34c-4.49-3.25-12.3-4.58-17.48-6.57-5.77-2.21-11.53-4.46-17.31-6.66-11.52-4.39-23-8.92-34.64-13-27.29-9.51-56.24-8.41-82.94,2.41l-4.54,1.81-.34,3.88c-.32,3.61-.8,7.23-1.2,10.84s-1,7.23-1.48,10.84c-.24,1.8-.53,3.6-.85,5.41l-.93,5.39c-.61,3.6-1.45,7.18-2.16,10.76s-1.68,7.12-2.5,10.67-2,7-2.92,10.57-2.16,7-3.3,10.42-2.37,6.88-3.67,10.27-2.55,6.78-4,10.11-2.77,6.67-4.28,9.94-2.92,6.59-4.51,9.81-3.08,6.49-4.72,9.69-3.21,6.41-4.89,9.57l-5.08,9.47q-2.55,4.72-5.2,9.4,1.58-5.15,3.23-10.24l3.22-10.22c1.11-3.39,2.13-6.81,3.2-10.21s2.09-6.8,3.12-10.2,2-6.81,3-10.2,1.86-6.82,2.78-10.23,1.72-6.82,2.59-10.23,1.51-6.85,2.29-10.25,1.35-6.86,2-10.28,1.14-6.88,1.66-10.32,1-6.88,1.37-10.34.81-6.9,1-10.38.65-6.91.81-10.4.46-7,.55-10.44l.34-10.47.18-10.5.12-6.36,6.28-2.94C1092.24,637.06,1098.77,633.8,1105.6,630.67Z" transform="translate(-9 -8.67)"/>
          <path class="cls-1" d="M1041.67,823s-.61.88-1.77,2.51l0,0,0,0-.89,1.26c-1.74,2.43-4.26,6-7.42,10.65s-7,10.19-11.17,16.68c-2.12,3.23-4.3,6.7-6.54,10.37s-4.53,7.55-6.74,11.64a124.06,124.06,0,0,0-6.2,12.8,61.7,61.7,0,0,0-2.33,6.63,31,31,0,0,0-.7,3.18c-.08.54-.13.89-.2,1.62s-.09,1.22-.14,1.83c-.35,5.12-.55,10.72-.72,16.42s-.43,11.64-.66,17.62-.65,12.13-1.09,18.37-1.11,12.55-1.87,19-1.84,12.89-3.16,19.46a125.27,125.27,0,0,1-5.67,20,64.63,64.63,0,0,1-5,10.45,38.81,38.81,0,0,1-3.93,5.35,29.53,29.53,0,0,1-5.8,5.15,23.68,23.68,0,0,1-8.4,3.52c-1,.2-1.17.21-1.58.28l-1.24.2-2.52.37q-5,.72-10,1.09a189.41,189.41,0,0,1-19.74.54,178.84,178.84,0,0,1-19.25-1.62,159.07,159.07,0,0,1-18.38-3.81,140.49,140.49,0,0,1-17-5.92,124.53,124.53,0,0,1-15.2-7.79,108.26,108.26,0,0,1-31.82-29.16A110.41,110.41,0,0,1,814,973.74a117.15,117.15,0,0,1-4.86-12.26c-.49-1.44-.8-2.56-1-3.31l-.33-1.13,2.59,3.82c1.7,2.48,4.28,6,7.73,10.34a132.81,132.81,0,0,0,13.37,14.36,113.74,113.74,0,0,0,9.09,7.61,109.12,109.12,0,0,0,10.77,7.23,110.51,110.51,0,0,0,12.43,6.38,117.19,117.19,0,0,0,13.95,5.14,130.3,130.3,0,0,0,15.26,3.67,142.17,142.17,0,0,0,16.31,2.06,160.43,160.43,0,0,0,17.06.47c5.78-.11,11.64-.44,17.5-1.12,2.93-.34,5.87-.72,8.79-1.16l2.17-.34,1.1-.19a6.77,6.77,0,0,0,.75-.14l.3-.19a12.68,12.68,0,0,0,2.93-3.57,41.55,41.55,0,0,0,3.3-6.71,128.49,128.49,0,0,0,5-16.58c1.41-5.82,2.5-11.82,3.58-17.81s2-12,2.85-18,1.7-11.95,2.49-17.84,1.65-11.75,2.44-17.45,1.7-11.35,2.91-17.08c.17-.74.33-1.48.5-2.22l.6-2.36c.46-1.61,1-3.1,1.56-4.53a67.7,67.7,0,0,1,3.81-7.82,135.66,135.66,0,0,1,8.57-13.1,253.64,253.64,0,0,1,17-20.44c5.32-5.79,10.14-10.63,14.18-14.55s7.33-6.87,9.55-8.89l1.06-.93c-.61-.41-1.64-1.13-3-2.21,1,.67,2,1.39,3.08,2.17C1040.82,823.69,1041.67,823,1041.67,823Z" transform="translate(-9 -8.67)"/>
          <path class="cls-1" d="M1007.66,754.27c47.33-32.07,34-106.8,34-106.8,30.35,45.63,0,175.5,0,175.5Z" transform="translate(-9 -8.67)"/>
          <path class="cls-1" d="M1005.46,689.31c29.3,25.38-9.37,21.45-1.11,57.45-29.17-60.59-92.93-62.06-101.92-62,95.8-.73,118.53-56.38,118.53-56.38C1029.62,652.15,1038.39,680.25,1005.46,689.31Z" transform="translate(-9 -8.67)"/>
          <path class="cls-1" d="M902.43,684.79c-.37,0-.73,0-1.1,0Z" transform="translate(-9 -8.67)"/>
          <path class="cls-1" d="M1130.29,621a70.25,70.25,0,0,1-14-3.81Z" transform="translate(-9 -8.67)"/>
          <path class="cls-1" d="M906.16,496.67,979,545.16s-25.74,8.1-13.91,21.4c7.19,8.08,39.48-5.47,39.48-5.47s74.32,42.7,111.69,56.08L920.38,563.81s18-10.75,10.56-28.47c-11.23-26.7-80.58,32-129.34,38.67v-.72C812.81,566.51,883.22,523.36,906.16,496.67Z" transform="translate(-9 -8.67)"/>
          <path class="cls-1" d="M982.9,755.27c24.83,42.84,45.25,61.35,53.32,67.59-30.68-20.07-50.06,11.39-87-51.07,45.93,36.85,42.07,13.93,29.61.9-43.2-45.16-99.2-50.26-82.31-70C909.65,687.46,950.67,699.68,982.9,755.27Z" transform="translate(-9 -8.67)"/>
          <path class="cls-1" d="M1026.62,836.86S949,838.25,918.08,796.4c0,0,13.26-23-13.73-61.18C934.71,756.08,953.09,831.8,1026.62,836.86Z" transform="translate(-9 -8.67)"/>
          <path class="cls-1" d="M965.12,840.67s-60.77,75.72-117.56,48.59c0,0,43.63,1.46,50.62-39.73,3.15-18.53,13.22-39.25,13.22-39.25S931.74,836.87,965.12,840.67Z" transform="translate(-9 -8.67)"/>
          <path class="cls-1" d="M1000,852.7c-36.23,28.62-37.43,112.52-37.46,115.37,1.54-113-23.26-87.83-23.26-87.83C986.73,822.7,1000,852.7,1000,852.7Z" transform="translate(-9 -8.67)"/>
          <path class="cls-1" d="M860.38,812.07c11.71,5,20,14.9,20,14.9-21.9-14.1-54.63,6.44-54.63,6.44-11.57,2.9-21.76-2.15-25.41-4.31V822c20.63,2.82,46-7.66,46-7.66C839,808.57,814,798.67,814,798.67s8.76,14.2,2.87,15.67c-11.77,2.94-11.9-6.61-16.55-14.32V777.76C810.28,789.06,844.79,805.44,860.38,812.07Z" transform="translate(-9 -8.67)"/>
          <path class="cls-1" d="M809.89,670.83c1.52,1.57,3.18,3.23,5,5s3.69,3.57,5.81,5.43,4.23,3.84,6.58,5.81l3.55,3,3.76,3.09,3.89,3.16,4.07,3.2,4.18,3.26,4.36,3.27,4.48,3.37c1.56,1.11,3.09,2.13,4.71,3.35,3.25,2.34,6.29,4.76,9.32,7.28A130.09,130.09,0,0,1,886,736.37a89.74,89.74,0,0,1,11.92,18.24A69.79,69.79,0,0,1,904,773.54a70.61,70.61,0,0,1,.58,18,89.43,89.43,0,0,1-3.06,15.88,202.11,202.11,0,0,1-8.56,23c-1.05,2.46-1.83,4.45-2.38,5.91-.39,1.35-.75,2.47-1,3.3-.4,1.18-.62,1.81-.62,1.81l-1.17,2s.08-.5.22-1.43c.08-.47.16-1,.23-1.72s.17-1.46.21-2.33a32,32,0,0,0-.16-6.23A23.68,23.68,0,0,0,886,824a27.38,27.38,0,0,0-6.08-8,62.88,62.88,0,0,0-10-7.35c-3.84-2.35-8.07-4.62-12.46-6.9l-6.7-3.42c-2.26-1.12-4.58-2.39-6.87-3.59-9.12-4.91-17.83-10.15-25.79-15.21-6.5-4.12-12.46-8.11-17.76-11.75V743.29l.39.39c2.83,2.76,6.95,6.7,12,11.36s11.13,10,17.84,15.62,14.1,11.42,21.87,16.93l11.94,8.27c4,2.79,7.87,5.62,11.43,8.56a59.21,59.21,0,0,1,9.24,9.22,27.18,27.18,0,0,1,4.93,9.61,23.42,23.42,0,0,1,.77,5.41,72.1,72.1,0,0,0-.25-12.9A65.61,65.61,0,0,0,888,803.54a62,62,0,0,0-5.8-13,69.37,69.37,0,0,0-9.59-12.7,92.78,92.78,0,0,0-13.13-11.42c-1.19-.9-2.49-1.72-3.72-2.59s-2.54-1.6-3.8-2.41-2.76-1.62-4.13-2.43l-4.2-2.33c-2.87-1.59-5.72-3.17-8.44-4.81s-5.48-3.21-8.07-4.85-5.2-3.23-7.65-4.87l-3.65-2.4-3.5-2.41L808.89,735l-3.23-2.34c-1.88-1.34-3.62-2.68-5.33-4V701.7l1.48,1.89c1.48,1.86,3.38,4.11,5.64,6.67s4.95,5.42,8,8.48c1.53,1.53,3.12,3.14,4.86,4.75.85.82,1.73,1.64,2.61,2.48l2.78,2.52,2.88,2.58c1,.86,2,1.73,3,2.6,2,1.77,4.18,3.53,6.39,5.3s4.49,3.57,6.84,5.36,4.76,3.58,7.23,5.36l1.85,1.35.93.67.47.34.57.39c1.29.91,2.55,1.77,3.86,2.74s2.68,2,3.94,3,2.51,2,3.68,3.08A92.61,92.61,0,0,1,880,774.59a69,69,0,0,1,8.5,14.28,61.61,61.61,0,0,1,4.33,14,65,65,0,0,1,1,12.76A75.69,75.69,0,0,1,892,830.94c.06-.21.13-.41.2-.62a192.48,192.48,0,0,0,6.47-23.22,85.16,85.16,0,0,0,1.61-15.65,67.75,67.75,0,0,0-2.08-17.28,68.58,68.58,0,0,0-7.3-17.63A89.31,89.31,0,0,0,878.2,740a130,130,0,0,0-16.77-14.58c-3-2.22-6.18-4.42-9.32-6.41-1.51-1-3.27-2-4.88-3.06l-5-2.91-5-2.89-4.86-2.91-4.74-2.85L823,701.51l-4.44-2.8-4.23-2.78c-2.8-1.81-5.43-3.64-8-5.39-2.15-1.45-4.12-2.92-6.06-4.33V659.58c.63.88,1.4,1.9,2.32,3.06C804.45,664.92,806.9,667.69,809.89,670.83Z" transform="translate(-9 -8.67)"/>
          <path class="cls-1" d="M1010.72,325.08c-41.45,24.06-64.88,73-38.43,128,0,0-26.91-20.11-43.5-28.39-36.9-18.41-92.53,31.56-92.53,31.56S902.33,324,1010.72,325.08Z" transform="translate(-9 -8.67)"/>
          <path class="cls-1" d="M1140.9,347c36.67,28.26,37.69,88.41,2.28,134.36-19.93,25.87-47.16,41.72-73.7,45.59a96.34,96.34,0,0,0,38.79-30.32c27.66-35.9,26.86-82.9-1.78-105s-74.3-10.87-102,25a96.38,96.38,0,0,0-19.44,45.25c-3-26.65,5.37-57,25.3-82.89C1045.8,333.07,1104.23,318.73,1140.9,347Z" transform="translate(-9 -8.67)"/>
          <path class="cls-1" d="M1091.17,409.62c20.66,15.92,21.24,49.81,1.29,75.7-11.23,14.57-26.58,23.5-41.53,25.68-5.83-9.52-37.13-32.36-47.54-36.63-1.7-15,3-32.13,14.25-46.7C1037.59,401.78,1070.51,393.7,1091.17,409.62Z" transform="translate(-9 -8.67)"/>
          <path class="cls-1" d="M916.1,1062s28.86,8.16,53.49-7.17L922,1305.72l25.2-221.86S937.85,1081.88,916.1,1062Z" transform="translate(-9 -8.67)"/>
          <path class="cls-1" d="M857.36,1321.94s61.16-111.6,29-116.84c-27-4.39-20.21,39.48-20.21,39.48l-22.88-51.36,72.83-25.38C917.88,1299.27,857.36,1321.94,857.36,1321.94Z" transform="translate(-9 -8.67)"/>
          <path class="cls-1" d="M800.33,853.46s5.62,0,5.86,0c5.83-.3,10.73-4.26,15.71-6.88,5.36-2.82,11.16-5.06,17.3-5.06,14.75,0,21.82,9.09,31.92,9.09S888.5,844,888.5,844s1.21,18.79-14.55,31.52-29.52,16.77-29.52,16.77S856.58,882,849.5,876.7s-17.37-2.22-21.62,4-9.09,16,2.43,20.41c0,0-30,16.16-30,31.52Z" transform="translate(-9 -8.67)"/>
          <path class="cls-1" d="M800.33,1024.21s9.5-8.68,8.77-21.71a44.18,44.18,0,0,1,17.55,20.81s4-6.34,2.54-13.75c0,0,25.69,35.82,57.53,56.63,0,0-39.8-17-47-23.89l3.85,23.89s-20.49-21.53-28.09-35.47c0,0-3.43,21.9-15.11,32.21Z" transform="translate(-9 -8.67)"/>
          <path class="cls-1" d="M800.33,1120.9a64.48,64.48,0,0,0,16.49-32.53s6.78,2,11.86,17.62a34.71,34.71,0,0,0,4.74-24A43.21,43.21,0,0,1,849,1111.41s34.21-45.06,65.38-49.8c0,0-57.93,66.74-66.4,116.88,0,0-4.74-26.43,2.37-47.09,0,0-21.41,15.34-27.29,31.11-.18.47-.34.94-.49,1.41-5.08,16.26,8.81-31.17,6.78-39.3,0,0-29,31.85-29,87.74Z" transform="translate(-9 -8.67)"/>
          <path class="cls-1" d="M823,1191.68s-1.31,40-22.68,55.55v105s26.66-61.48,57-77.24Z" transform="translate(-9 -8.67)"/>
          <path class="cls-1" d="M916.14,1086s-37.72,37.27-42.73,77.24l42.69-14.91S902.21,1123.92,916.14,1086Z" transform="translate(-9 -8.67)"/>
          <path class="cls-1" d="M953.9,1290.6c10.06-50,67.31-80.91,106.44-104.34,56.13-33.62,104.15-67.65,136.52-126.06,22.14-40,36.74-84,39-153.72-11.11,48.74-31.38,86.23-43.67,102.51-24.37,32.27-52.43,59.26-87.6,79.47-33.27,19.11-70.52,33.31-98.9,59.89-21.46,20.09-34.83,47.1-42.11,75.31C957.93,1245.76,958.35,1268.46,953.9,1290.6Z" transform="translate(-9 -8.67)"/>
          <path class="cls-1" d="M1041.67,984.87s114.19-2.3,167.19-107.32,51.28-157.8,51.28-157.8,46.13,50.91,46.7,125.86c0,0-9.86-38.3-35.09-48.24,0,0-18.94,89.88,29.17,153.89,0,0-38.55,4.71-62-74.38C1239,876.88,1213.29,996.46,1041.67,984.87Z" transform="translate(-9 -8.67)"/>
          <path class="cls-1" d="M1213.22,675.82S1247,729.08,1232,783.72c0,0-15.49-60.64-41.45-76.66,0,0,.39,60.38,34.6,88.54,0,0-2.95,159.78-185.67,141,0,0,73.9-10.18,101.78-60.59S1166,770,1166,770s-10.47,101.62-107.66,95.2c0,0,89.73-12.46,47.55-192C1105.88,673.19,1147,632,1213.22,675.82Z" transform="translate(-9 -8.67)"/>
          <path class="cls-1" d="M1094.9,735.22s-21.62,83.75-68.28,131.24,7.1,126.7-41.68,177.51c0,0,40.51-30.55,44-60.67,0,0,41.4-7.08,80.7-30.79,0,0-48,13.93-78.22-14.38,0,0,48.41-12.72,69.41-57.44,0,0-35.91,8.81-53.53-11.52C1047.27,869.17,1105.94,788.27,1094.9,735.22Z" transform="translate(-9 -8.67)"/>
          <path class="cls-1" d="M1205.48,955.22s-48.44,76.66-158.21,51.37c0,0-59.28,42.13-68.43,139.69,0,0,21.45-53.48,76.28-80.09C1055.12,1066.19,1180.07,1052.78,1205.48,955.22Z" transform="translate(-9 -8.67)"/>
          <path class="cls-1" d="M1180.79,444.3s59.19,61.08,100.48,178c0,0-25.23-53.65-67.5-61.68,0,0,19.32,86.55,82.41,127,0,0-83.37-41.91-119.29-125.86,0,0-30.83-27.5-84.73-21.79,0,0,18.8-9.58,46.89-25.23C1150.26,508.47,1184.76,469.75,1180.79,444.3Z" transform="translate(-9 -8.67)"/>
          <path class="cls-1" d="M817.63,928a1.35,1.35,0,0,0,.19.34,8.37,8.37,0,0,0,.83.87l1.54,1.15c.64.39,1.4.79,2.26,1.24a61.25,61.25,0,0,0,6.39,2.76c2.53.81,5.39,1.79,8.56,2.64s6.62,1.66,10.29,2.42,7.53,1.42,11.56,2.06l1.51.26.38.06.5.06.76.09c1,.11,2,.24,3.1.33l3.44.16c1.14,0,2.27,0,3.41-.08a49.86,49.86,0,0,0,13.62-2.6,52.93,52.93,0,0,0,12.3-6.19,86.21,86.21,0,0,0,10.14-8c3.06-2.76,5.8-5.55,8.44-8.08s5.13-4.87,7.53-6.86a61.57,61.57,0,0,1,6.92-4.95,43.75,43.75,0,0,1,5.92-3,41.22,41.22,0,0,1,4.12-1.37l1.5-.42-1.56,0a27.8,27.8,0,0,0-4.47.27,32.75,32.75,0,0,0-6.83,1.69,44.79,44.79,0,0,0-8.27,3.94,81.73,81.73,0,0,0-8.82,6.08L903.76,920c-6.23,4.87-13,9.55-20.44,12.06a47.8,47.8,0,0,1-11.5,2.42l-2.92.18-2.83,0c-1,0-2.05-.1-3.07-.15l-.76,0h-.19s-.18,0,0,0H862l-.38,0-1.5-.14c-4-.38-7.85-.63-11.53-.9s-7.09-.73-10.29-1l-8.67-1.07c-1.26-.23-2.44-.47-3.56-.65a21.71,21.71,0,0,1-3-.61l-2.41-.62-1.71-.66A3.84,3.84,0,0,1,817.63,928Z" transform="translate(-9 -8.67)"/>
          <path class="cls-1" d="M820.17,946.26a3.29,3.29,0,0,0,.07,1.69,13.18,13.18,0,0,0,2.11,4.36,35.87,35.87,0,0,0,4.94,5.65c1.08.95,2.19,2,3.44,3s2.59,2.08,4,3.07a107.89,107.89,0,0,0,9.5,6.2c1.74,1,3.5,2.1,5.35,3.09l5.77,3a91.94,91.94,0,0,0,12.74,5.14,80.62,80.62,0,0,0,14,3.14,86.76,86.76,0,0,0,14.27.67A117.15,117.15,0,0,0,910,984.06c4.34-.61,8.44-1.46,12.31-2.15s7.49-1.39,10.84-1.86,6.42-.78,9.16-.9a70,70,0,0,1,7.13.1c2,.18,3.56.32,4.62.53l1.65.25-1.52-.69a35.93,35.93,0,0,0-4.46-1.65,57.3,57.3,0,0,0-16.9-2.22c-3.53,0-7.33.16-11.29.51l-12.33,1c-4.23.3-8.55.55-12.91.52a100.74,100.74,0,0,1-13.09-.87,91.22,91.22,0,0,1-12.78-2.7,110.34,110.34,0,0,1-12.07-4.28c-3.77-1.63-7.66-3.28-11.17-4.88-1.8-.77-3.47-1.64-5.12-2.43s-3.22-1.58-4.73-2.35c-3-1.56-5.67-3.12-8-4.55a49,49,0,0,1-5.66-4.21,15.17,15.17,0,0,1-2.93-3.44A3.62,3.62,0,0,1,820.17,946.26Z" transform="translate(-9 -8.67)"/>
          <path class="cls-1" d="M942.84,915.93s11.82,26.61,7.76,49.89c0,0-23.66-6.68-40.15-1.11-18.8,6.36-55.83-3.55-66-13.72,0,0,22.62,2.54,42.29-1.52S924.87,915.48,942.84,915.93Z" transform="translate(-9 -8.67)"/>
          <path class="cls-1" d="M836.52,976.66s32,15.75,48.78,17.27,55.13-9.4,70.38-7.11c0,0-3.31,14.73-8.9,20.83C946.78,1007.65,868.78,1016.54,836.52,976.66Z" transform="translate(-9 -8.67)"/>
          <path class="cls-1" d="M817.63,919.49S830,903.1,847.56,898.82c0,0,28.34,16.94,85.59-13.21C933.15,885.61,865.39,938.12,817.63,919.49Z" transform="translate(-9 -8.67)"/>
          <path class="cls-1" d="M800,268.48l18.44,64.44S875.27,263,981.2,306.7c0,0-163.47-5.46-180.57,181.3Z" transform="translate(-9 -8.67)"/>
        </g>
      </g>
      <g>
        <g>
          <path class="cls-1" d="M852.29,1576.25s-119.77,3.19-119.75-36,99,.3,147.73,2.52c45.89,2.09,109-15.34,130.11-52.35,0,0-80.74,41-160.85,17.44-66.1-19.47-133.63-77.43-215.73-36.54,0,0,80.58,6.16,67.44,39.33s-88.76-26.43-139.27-56.55-113.5-33.31-147.58-17c0,0,67.68,4.39,150.82,71S761.82,1614.88,852.29,1576.25Z" transform="translate(-9 -8.67)"/>
          <path class="cls-1" d="M594.43,1440s90.35-47.33,179.24-22.11c0,0-21.55,41.09,27.54,58.66s139.41,42.19,235.52-33.68c0,0-164.58,82.27-199.29-16.19-15.62-44.32,105.31-13,105.31-13s-72.29-52.23-145-48.34C694,1370.93,594.43,1440,594.43,1440Z" transform="translate(-9 -8.67)"/>
          <path class="cls-1" d="M1054.33,1413.09s-114.86,77.37-179.2,34.78,49.38-24.39,90-21.47S1054.33,1413.09,1054.33,1413.09Z" transform="translate(-9 -8.67)"/>
        </g>
        <g>
          <path class="cls-1" d="M748.38,23.75S868.14,20.56,868.13,59.8s-99-.3-147.73-2.52c-45.9-2.09-109,15.34-130.11,52.35,0,0,80.73-41,160.85-17.44,66.09,19.47,133.62,77.43,215.72,36.54,0,0-80.57-6.16-67.44-39.33S988.19,115.83,1038.7,146s113.5,33.31,147.58,17c0,0-67.68-4.39-150.83-71S838.84-14.88,748.38,23.75Z" transform="translate(-9 -8.67)"/>
          <path class="cls-1" d="M1006.24,160S915.89,207.33,827,182.11c0,0,21.55-41.09-27.54-58.66S660.05,81.26,563.93,157.13c0,0,164.58-82.27,199.29,16.19,15.63,44.32-105.31,13-105.31,13s72.3,52.23,145,48.34C906.71,229.07,1006.24,160,1006.24,160Z" transform="translate(-9 -8.67)"/>
          <path class="cls-1" d="M546.34,186.91s114.85-77.37,179.2-34.78-49.39,24.39-90,21.47S546.34,186.91,546.34,186.91Z" transform="translate(-9 -8.67)"/>
        </g>
        <g>
          <path class="cls-1" d="M288.18,1385.63S201.24,1303.2,229,1275.46s69.82,70.24,102.68,106.24c31,33.93,87.93,66.23,129,55,0,0-86.11-28.07-126.07-101.4-33-60.51-39.74-149.25-126.71-178.38,0,0,52.62,61.33,19.87,75.49S183.72,1151,169.3,1093.94,112.6,990.12,76.93,977.59c0,0,44.75,51,56.45,156.85S196.89,1349,288.18,1385.63Z" transform="translate(-9 -8.67)"/>
          <path class="cls-1" d="M202.18,1107s97.36,30.42,142.38,111.11c0,0-44.29,13.82-22,61s68.74,128.41,190.36,142.73c0,0-174.55-58.2-129.48-152.37,20.29-42.39,83.64,65.29,83.64,65.29S452.9,1246.61,398.76,1198C321.41,1128.49,202.18,1107,202.18,1107Z" transform="translate(-9 -8.67)"/>
          <path class="cls-1" d="M546.42,1413.13S410.49,1386.61,395.11,1311s52.16,17.68,78.85,48.48S546.42,1413.13,546.42,1413.13Z" transform="translate(-9 -8.67)"/>
        </g>
        <g>
          <path class="cls-1" d="M1312.48,214.37s87,82.43,59.2,110.17S1301.85,254.3,1269,218.3c-31-33.93-87.92-66.23-129-55,0,0,86.11,28.07,126.07,101.4,33,60.51,39.74,149.25,126.71,178.38,0,0-52.62-61.33-19.88-75.49s44.07,81.45,58.5,138.46,56.7,103.82,92.37,116.35c0,0-44.76-51-56.46-156.85S1403.77,251,1312.48,214.37Z" transform="translate(-9 -8.67)"/>
          <path class="cls-1" d="M1398.48,493.05s-97.35-30.42-142.38-111.11c0,0,44.29-13.82,22-60.95s-68.75-128.41-190.36-142.73c0,0,174.55,58.2,129.48,152.37-20.3,42.39-83.65-65.29-83.65-65.29s14.19,88.05,68.32,136.68C1279.26,471.51,1398.48,493.05,1398.48,493.05Z" transform="translate(-9 -8.67)"/>
          <path class="cls-1" d="M1054.25,186.87S1190.17,213.39,1205.56,289s-52.17-17.68-78.85-48.48S1054.25,186.87,1054.25,186.87Z" transform="translate(-9 -8.67)"/>
        </g>
        <g>
          <path class="cls-1" d="M24.09,852s-3.19-119.77,36-119.76-.3,99-2.51,147.73c-2.09,45.9,15.34,109,52.35,130.12,0,0-41-80.74-17.45-160.85C112,783.1,170,715.57,129.06,633.47c0,0-6.16,80.58-39.33,67.44s26.44-88.76,56.55-139.27,33.32-113.51,16.95-147.59c0,0-4.39,67.69-71,150.83S-14.55,761.49,24.09,852Z" transform="translate(-9 -8.67)"/>
          <path class="cls-1" d="M160.33,594.09s47.33,90.35,22.11,179.24c0,0-41.09-21.54-58.66,27.54S81.59,940.28,157.46,1036.4c0,0-82.27-164.58,16.19-199.29,44.33-15.63,13,105.31,13,105.31s52.23-72.29,48.34-145C229.41,693.62,160.33,594.09,160.33,594.09Z" transform="translate(-9 -8.67)"/>
          <path class="cls-1" d="M187.24,1054s-77.36-114.86-34.78-179.2,24.39,49.38,21.48,90S187.24,1054,187.24,1054Z" transform="translate(-9 -8.67)"/>
        </g>
        <g>
          <path class="cls-1" d="M1576.58,748s3.19,119.77-36,119.76.29-99,2.51-147.73c2.09-45.9-15.34-109-52.35-130.12,0,0,41,80.74,17.44,160.85-19.47,66.1-77.43,133.63-36.53,215.73,0,0,6.15-80.58,39.33-67.44s-26.44,88.76-56.55,139.27-33.32,113.51-17,147.59c0,0,4.39-67.69,71-150.83S1615.22,838.51,1576.58,748Z" transform="translate(-9 -8.67)"/>
          <path class="cls-1" d="M1440.34,1005.91s-47.33-90.35-22.12-179.24c0,0,41.09,21.54,58.66-27.54s42.19-139.41-33.68-235.53c0,0,82.27,164.58-16.18,199.29-44.33,15.63-13-105.31-13-105.31s-52.23,72.29-48.34,145C1371.26,906.38,1440.34,1005.91,1440.34,1005.91Z" transform="translate(-9 -8.67)"/>
          <path class="cls-1" d="M1413.43,546s77.36,114.86,34.77,179.2-24.38-49.38-21.47-90S1413.43,546,1413.43,546Z" transform="translate(-9 -8.67)"/>
        </g>
        <g>
          <path class="cls-1" d="M214.71,287.85s82.43-86.94,110.16-59.19-70.24,69.82-106.24,102.68c-33.93,31-66.22,87.92-55,129,0,0,28.07-86.11,101.41-126.07,60.51-33,149.24-39.73,178.38-126.71,0,0-61.33,52.63-75.5,19.88S449.39,183.39,506.4,169s103.81-56.7,116.34-92.36c0,0-51,44.75-156.85,56.45S251.35,196.56,214.71,287.85Z" transform="translate(-9 -8.67)"/>
          <path class="cls-1" d="M493.38,201.85S463,299.21,382.28,344.23c0,0-13.83-44.29-61-22S192.91,391,178.6,512.58c0,0,58.2-174.55,152.36-129.47,42.39,20.29-65.29,83.64-65.29,83.64s88.05-14.19,136.68-68.32C471.85,321.07,493.38,201.85,493.38,201.85Z" transform="translate(-9 -8.67)"/>
          <path class="cls-1" d="M187.21,546.08s26.51-135.92,102.12-151.3-17.67,52.16-48.48,78.84S187.21,546.08,187.21,546.08Z" transform="translate(-9 -8.67)"/>
        </g>
        <g>
          <path class="cls-1" d="M1386,1312.15s-82.43,86.94-110.16,59.19S1346,1301.52,1382,1268.66c33.94-31,66.23-87.92,55-129,0,0-28.07,86.11-101.4,126.07-60.51,33-149.24,39.73-178.38,126.71,0,0,61.33-52.63,75.5-19.88s-81.46,44.07-138.47,58.5-103.82,56.7-116.34,92.36c0,0,51-44.75,156.84-56.45S1349.31,1403.44,1386,1312.15Z" transform="translate(-9 -8.67)"/>
          <path class="cls-1" d="M1107.29,1398.15s30.42-97.36,111.1-142.38c0,0,13.82,44.29,60.95,22s128.41-68.75,142.73-190.36c0,0-58.2,174.55-152.36,129.47-42.4-20.29,65.29-83.64,65.29-83.64s-88.06,14.19-136.69,68.32C1128.82,1278.93,1107.29,1398.15,1107.29,1398.15Z" transform="translate(-9 -8.67)"/>
          <path class="cls-1" d="M1413.46,1053.92s-26.51,135.92-102.12,151.3,17.67-52.16,48.48-78.84S1413.46,1053.92,1413.46,1053.92Z" transform="translate(-9 -8.67)"/>
        </g>
      </g>
      <path class="cls-1" d="M778.35,262.44s-102.84.48-140.34-60.59c0,0-130,25.89-163.65,121.18,0,0,85.45-60.07,149.14-58C623.5,265,695.49,309.57,778.35,262.44Z" transform="translate(-9 -8.67)"/>
      <path class="cls-1" d="M374.58,452.41s-43.16,40.12-119.45,38.66c0,0-55.93,23.75-62.15,103,0,0,40.74-50.54,81.48-58.82,0,0-9,71.22-60.76,143.37C213.7,678.64,347.65,588.43,374.58,452.41Z" transform="translate(-9 -8.67)"/>
      <path class="cls-1" d="M283.78,651.27s-24.51,30.38-57,39.36c0,0,65.21,131.86-33.84,264.59C193,955.22,301.07,900.81,283.78,651.27Z" transform="translate(-9 -8.67)"/>
      <path class="cls-1" d="M207.48,1002.5s52.07-37.89,78.17-116.89c0,0,7.11,118.68-27.07,150.79,0,0,97.5,25.92,164.41,109.88,0,0-98.09-66-205.81-60.5C217.18,1085.78,193.33,1023.33,207.48,1002.5Z" transform="translate(-9 -8.67)"/>
      <path class="cls-1" d="M347,955.22s-12.43,59.41-50.4,70.3c0,0,48.33,14.5,90.45,51.78C387,1077.3,341.05,1016.91,347,955.22Z" transform="translate(-9 -8.67)"/>
      <path class="cls-1" d="M448.46,1180.29C490,1195,533.63,1213.2,566,1243.87a343.23,343.23,0,0,1,24.64,26.65c19.94,23.33,44.2,42.93,70.62,58.48a183.94,183.94,0,0,0,26.06,13c4.93,1.94,16.22,7.4,21.65,5.65,0,0-121.31,37.78-166-52.13C517.86,1244.89,448.46,1180.29,448.46,1180.29Z" transform="translate(-9 -8.67)"/>
      <path class="cls-1" d="M686.17,1373.7s-133.1,15.26-169.86-68-89.08-117.94-89.08-117.94,41.7,79.21,67.32,143.45C532.88,1427.32,686.17,1373.7,686.17,1373.7Z" transform="translate(-9 -8.67)"/>
      <path class="cls-1" d="M820.72,262.44s102.84.48,140.34-60.59c0,0,130,25.89,163.65,121.18,0,0-85.45-60.07-149.14-58C975.57,265,903.58,309.57,820.72,262.44Z" transform="translate(-9 -8.67)"/>
      <path class="cls-1" d="M1224.49,452.41s43.16,40.12,119.45,38.66c0,0,55.93,23.75,62.15,103,0,0-40.74-50.54-81.48-58.82,0,0,9,71.22,60.76,143.37C1385.37,678.64,1251.42,588.43,1224.49,452.41Z" transform="translate(-9 -8.67)"/>
      <path class="cls-1" d="M1315.29,651.27s24.51,30.38,57,39.36c0,0-65.22,131.86,33.84,264.59C1406.09,955.22,1298,900.81,1315.29,651.27Z" transform="translate(-9 -8.67)"/>
      <path class="cls-1" d="M1391.59,1002.5s-52.07-37.89-78.17-116.89c0,0-7.11,118.68,27.07,150.79,0,0-97.5,25.92-164.41,109.88,0,0,98.09-66,205.81-60.5C1381.89,1085.78,1405.74,1023.33,1391.59,1002.5Z" transform="translate(-9 -8.67)"/>
      <path class="cls-1" d="M1252.11,955.22s12.43,59.41,50.4,70.3c0,0-48.33,14.5-90.45,51.78C1212.06,1077.3,1258,1016.91,1252.11,955.22Z" transform="translate(-9 -8.67)"/>
      <path class="cls-1" d="M1150.61,1180.29c-41.49,14.68-85.18,32.91-117.53,63.58a343.23,343.23,0,0,0-24.64,26.65c-19.94,23.33-44.2,42.93-70.62,58.48a183.94,183.94,0,0,1-26.06,13c-4.93,1.94-16.22,7.4-21.65,5.65,0,0,121.31,37.78,166-52.13C1081.21,1244.89,1150.61,1180.29,1150.61,1180.29Z" transform="translate(-9 -8.67)"/>
      <path class="cls-1" d="M912.9,1373.7s133.1,15.26,169.86-68,89.08-117.94,89.08-117.94-41.7,79.21-67.32,143.45C1066.19,1427.32,912.9,1373.7,912.9,1373.7Z" transform="translate(-9 -8.67)"/>
    </g>
    <g>
      <g>
        <path class="cls-1" d="M633.07,591.78c-24.9-4-23.56,29.62-23.56,29.62,11.89-14.59,21.09-4.94,25.8,12.56s14.14,24.9,32.41,27.37,18.52-9.42,36-10.55S726,672.55,726,672.55C721.23,605.92,658,595.82,633.07,591.78Zm25.13,57.66c-23.11-9.65-7-41.05-7-41.05S682,614.44,696.11,636C696.11,636,684.06,660.24,658.2,649.44Z" transform="translate(-9 -8.67)"/>
        <ellipse class="cls-1" cx="662.21" cy="617.33" rx="6.95" ry="16.49"/>
      </g>
      <g>
        <path class="cls-1" d="M874.72,672.55s4.71-22.89,22.21-21.77,17.74,13,36,10.55,27.7-9.87,32.41-27.37,13.91-27.15,25.8-12.56c0,0,1.35-33.65-23.55-29.62S879.43,605.92,874.72,672.55ZM904.56,636c14.13-21.54,44.86-27.59,44.86-27.59s16.16,31.4-6.95,41.05C916.61,660.24,904.56,636,904.56,636Z" transform="translate(-9 -8.67)"/>
        <ellipse class="cls-1" cx="920.46" cy="617.33" rx="6.95" ry="16.49"/>
      </g>
    </g>
    <path class="cls-1" d="M800.33,591.45s-53.13,2.62-90.28-34.53l-48.68,25.92s47.08-5.93,56.87,26.67c0,0,65.75-21.69,82.09,9.57Z" transform="translate(-9 -8.67)"/>
    <path class="cls-1" d="M800.33,591.45s53.14,2.62,90.29-34.53l48.68,25.92s-47.08-5.93-56.87,26.67c0,0-65.76-21.69-82.1,9.57Z" transform="translate(-9 -8.67)"/>
  </g>
</svg>
